# Blender v2.77 (sub 0) OBJ File: 'Apple TV.blend'
# www.blender.org
v -0.098000 0.001952 0.043316
v -0.097648 0.001713 0.054564
v -0.091837 0.001346 0.076141
v -0.043316 0.059319 0.098000
v -0.098000 0.059319 0.043316
v -0.065654 0.059319 0.095860
v -0.076141 0.059319 0.091837
v -0.097650 0.059319 0.054539
v -0.095868 0.059319 0.065622
v -0.091844 0.059319 0.076128
v -0.085172 0.059319 0.085159
v -0.098000 0.001955 -0.043316
v -0.043316 0.001952 -0.098000
v -0.097650 0.001715 -0.054539
v -0.085172 0.001297 -0.085159
v -0.054564 0.001713 -0.097648
v -0.043316 0.059319 -0.098000
v -0.054539 0.059319 -0.097650
v -0.065622 0.059319 -0.095868
v -0.097648 0.059319 -0.054564
v -0.095860 0.059319 -0.065654
v 0.098000 0.001955 0.043316
v 0.043316 0.001952 0.098000
v 0.095868 0.001477 0.065622
v 0.091844 0.001346 0.076128
v 0.076141 0.001346 0.091837
v 0.043316 0.059319 0.098000
v 0.098000 0.059319 0.043316
v 0.065622 0.059319 0.095868
v 0.076128 0.059319 0.091844
v 0.097648 0.059319 0.054564
v 0.095860 0.059319 0.065654
v 0.091837 0.059319 0.076141
v 0.043316 0.001955 -0.098000
v 0.098000 0.001952 -0.043316
v 0.065622 0.001477 -0.095868
v 0.097648 0.001713 -0.054564
v 0.095860 0.001476 -0.065654
v 0.091837 0.001346 -0.076141
v 0.098000 0.059319 -0.043316
v 0.097650 0.059319 -0.054539
v 0.095868 0.059319 -0.065622
v 0.085172 0.059319 -0.085159
v -0.056785 -0.002189 0.082959
v -0.065877 -0.002189 0.079477
v -0.073692 -0.002189 0.073703
v -0.084804 -0.002189 0.037483
v -0.079471 -0.002189 0.065888
v -0.037483 -0.002189 -0.084804
v -0.056813 -0.002189 -0.082952
v -0.065888 -0.002189 -0.079471
v 0.084804 -0.002189 0.037483
v 0.084501 -0.002189 0.047195
v 0.079477 -0.002189 0.065877
v 0.047217 -0.002189 0.084499
v 0.037483 -0.002189 0.084804
v 0.065888 -0.002189 0.079471
v 0.037483 -0.002189 -0.084804
v 0.056785 -0.002189 -0.082959
v 0.065877 -0.002189 -0.079477
v 0.082952 -0.002189 -0.056813
v 0.079471 -0.002189 -0.065888
v -0.043316 0.001955 0.098000
v -0.054539 0.001715 0.097650
v -0.065622 0.001477 0.095868
v -0.076128 0.001346 0.091844
v -0.085159 0.001297 0.085172
v -0.095860 0.001476 0.065654
v -0.054564 0.059319 0.097648
v -0.095868 0.001477 -0.065622
v -0.091844 0.001346 -0.076128
v -0.065654 0.001476 -0.095860
v -0.076141 0.001346 -0.091837
v -0.076128 0.059319 -0.091844
v -0.085159 0.059319 -0.085172
v -0.098000 0.059319 -0.043316
v -0.091837 0.059319 -0.076141
v 0.097650 0.001715 0.054539
v 0.085172 0.001297 0.085159
v 0.054564 0.001713 0.097648
v 0.065654 0.001476 0.095860
v 0.054539 0.059319 0.097650
v 0.085159 0.059319 0.085172
v 0.054539 0.001715 -0.097650
v 0.076128 0.001346 -0.091844
v 0.085159 0.001297 -0.085172
v 0.091844 0.059319 -0.076128
v 0.054564 0.059319 -0.097648
v 0.043316 0.059319 -0.098000
v 0.065654 0.059319 -0.095860
v 0.076141 0.059319 -0.091837
v -0.037483 -0.002189 0.084804
v -0.047195 -0.002189 0.084501
v -0.084499 -0.002189 0.047217
v -0.082952 -0.002189 0.056813
v -0.084804 -0.002189 -0.037483
v -0.084501 -0.002189 -0.047195
v -0.082959 -0.002189 -0.056785
v -0.079477 -0.002189 -0.065877
v -0.073703 -0.002189 -0.073692
v -0.047217 -0.002189 -0.084499
v 0.082959 -0.002189 0.056785
v 0.073703 -0.002189 0.073692
v 0.056813 -0.002189 0.082952
v 0.047195 -0.002189 -0.084501
v 0.073692 -0.002189 -0.073703
v 0.084499 -0.002189 -0.047217
v 0.084804 -0.002189 -0.037483
v -0.071823 0.059319 -0.071833
v 0.071833 0.059319 -0.071823
v -0.071833 0.059319 0.071823
v 0.071823 0.059319 0.071833
v -0.058998 -0.002189 0.059006
v -0.059006 -0.002189 -0.058998
v 0.058998 -0.002189 -0.059006
v 0.059006 -0.002189 0.058998
v -0.043316 0.001955 0.098000
v -0.054539 0.001715 0.097650
v -0.065622 0.001477 0.095868
v -0.076128 0.001346 0.091844
v -0.085159 0.001297 0.085172
v -0.095868 0.001477 -0.065622
v -0.091844 0.001346 -0.076128
v -0.076141 0.001346 -0.091837
v -0.065654 0.001476 -0.095860
v -0.076128 0.059319 -0.091844
v -0.085159 0.059319 -0.085172
v -0.091837 0.059319 -0.076141
v 0.065654 0.001476 0.095860
v 0.054564 0.001713 0.097648
v 0.076128 0.001346 -0.091844
v 0.085159 0.001297 -0.085172
v 0.054564 0.059319 -0.097648
v 0.043316 0.059319 -0.098000
v 0.065654 0.059319 -0.095860
v 0.076141 0.059319 -0.091837
v -0.037483 -0.002189 0.084804
v -0.047195 -0.002189 0.084501
v -0.082952 -0.002189 0.056813
v -0.084499 -0.002189 0.047217
v -0.084804 -0.002189 -0.037483
v -0.084501 -0.002189 -0.047195
v -0.082959 -0.002189 -0.056785
v -0.079477 -0.002189 -0.065877
v -0.073703 -0.002189 -0.073692
v 0.084499 -0.002189 -0.047217
v 0.084804 -0.002189 -0.037483
v -0.097648 0.001713 0.054564
v -0.098000 0.001952 0.043316
v -0.098000 0.001955 -0.043316
v -0.043316 0.059319 0.098000
v 0.043316 0.059319 0.098000
v -0.076141 0.059319 0.091837
v -0.065654 0.059319 0.095860
v -0.085172 0.059319 0.085159
v -0.091844 0.059319 0.076128
v -0.098000 0.059319 0.043316
v -0.097650 0.059319 0.054539
v -0.095868 0.059319 0.065622
v -0.097650 0.001715 -0.054539
v -0.054564 0.001713 -0.097648
v -0.043316 0.001952 -0.098000
v 0.043316 0.001955 -0.098000
v -0.043316 0.059319 -0.098000
v -0.054539 0.059319 -0.097650
v -0.065622 0.059319 -0.095868
v -0.095860 0.059319 -0.065654
v -0.097648 0.059319 -0.054564
v 0.098000 0.001952 -0.043316
v 0.098000 0.001955 0.043316
v 0.095868 0.001477 0.065622
v 0.091844 0.001346 0.076128
v 0.065622 0.059319 0.095868
v 0.076128 0.059319 0.091844
v 0.097648 0.059319 0.054564
v 0.098000 0.059319 0.043316
v 0.095860 0.059319 0.065654
v 0.098000 0.059319 -0.043316
v 0.091837 0.059319 0.076141
v 0.097648 0.001713 -0.054564
v 0.095860 0.001476 -0.065654
v 0.091837 0.001346 -0.076141
v 0.097650 0.059319 -0.054539
v 0.095868 0.059319 -0.065622
v -0.056785 -0.002189 0.082959
v -0.065877 -0.002189 0.079477
v -0.073692 -0.002189 0.073703
v -0.079471 -0.002189 0.065888
v -0.056813 -0.002189 -0.082952
v -0.047217 -0.002189 -0.084499
v -0.037483 -0.002189 -0.084804
v 0.037483 -0.002189 -0.084804
v 0.084804 -0.002189 0.037483
v 0.084501 -0.002189 0.047195
v 0.047217 -0.002189 0.084499
v 0.037483 -0.002189 0.084804
v 0.056785 -0.002189 -0.082959
v 0.065877 -0.002189 -0.079477
v 0.079471 -0.002189 -0.065888
v 0.082952 -0.002189 -0.056813
v -0.095860 0.001476 0.065654
v -0.091837 0.001346 0.076141
v -0.054564 0.059319 0.097648
v -0.085172 0.001297 -0.085159
v -0.098000 0.059319 -0.043316
v 0.097650 0.001715 0.054539
v 0.085172 0.001297 0.085159
v 0.043316 0.001952 0.098000
v 0.076141 0.001346 0.091837
v 0.054539 0.059319 0.097650
v 0.085159 0.059319 0.085172
v 0.054539 0.001715 -0.097650
v 0.065622 0.001477 -0.095868
v 0.091844 0.059319 -0.076128
v 0.085172 0.059319 -0.085159
v -0.084804 -0.002189 0.037483
v -0.065888 -0.002189 -0.079471
v 0.082959 -0.002189 0.056785
v 0.079477 -0.002189 0.065877
v 0.073703 -0.002189 0.073692
v 0.056813 -0.002189 0.082952
v 0.065888 -0.002189 0.079471
v 0.047195 -0.002189 -0.084501
v 0.073692 -0.002189 -0.073703
vt 0.8132 0.3761
vt 0.4951 0.0581
vt 0.8131 0.0581
vt 0.3491 0.3490
vt 0.0879 0.0879
vt 0.3490 0.0879
vt 0.4951 0.3762
vt 0.0879 0.3491
vt 0.8714 0.2915
vt 0.9984 0.0997
vt 0.9984 0.2915
vt 0.8714 0.6823
vt 0.9984 0.4905
vt 0.9984 0.6823
vt 0.0996 0.4373
vt 0.2915 0.5643
vt 0.0997 0.5644
vt 0.4904 0.4372
vt 0.6823 0.5642
vt 0.4905 0.5642
vt 0.8714 0.0748
vt 0.9989 0.0748
vt 0.8714 0.0499
vt 0.9995 0.0500
vt 0.8714 0.0250
vt 0.9997 0.0250
vt 0.8714 0.0002
vt 0.9998 0.0002
vt 0.0002 0.4374
vt 0.0250 0.5657
vt 0.0002 0.5658
vt 0.0250 0.4374
vt 0.0499 0.5654
vt 0.0499 0.4374
vt 0.0748 0.5649
vt 0.0748 0.4374
vt 0.4656 0.4372
vt 0.4656 0.5648
vt 0.4407 0.4372
vt 0.4407 0.5653
vt 0.4158 0.4372
vt 0.4158 0.5656
vt 0.3910 0.4373
vt 0.3661 0.5656
vt 0.3661 0.4373
vt 0.3412 0.5653
vt 0.3412 0.4373
vt 0.3163 0.5648
vt 0.3164 0.4373
vt 0.2914 0.4373
vt 0.8714 0.7071
vt 0.9989 0.7072
vt 0.8714 0.7320
vt 0.9995 0.7321
vt 0.8714 0.7569
vt 0.9997 0.7569
vt 0.8714 0.7818
vt 0.7818 0.4371
vt 0.7569 0.5655
vt 0.7569 0.4371
vt 0.7320 0.5652
vt 0.7320 0.4372
vt 0.7071 0.5647
vt 0.7072 0.4372
vt 0.6822 0.4372
vt 0.8714 0.3163
vt 0.9989 0.3164
vt 0.8714 0.3412
vt 0.9995 0.3413
vt 0.8714 0.3661
vt 0.9997 0.3661
vt 0.8714 0.3910
vt 0.9997 0.4159
vt 0.8714 0.4158
vt 0.9995 0.4408
vt 0.8714 0.4407
vt 0.9989 0.4656
vt 0.8714 0.4656
vt 0.8714 0.4905
vt 0.8703 0.0963
vt 0.8663 0.0718
vt 0.0012 0.3396
vt 0.0350 0.3443
vt 0.0055 0.3642
vt 0.0928 0.4020
vt 0.0727 0.3943
vt 0.0002 0.1225
vt 0.0315 0.1140
vt 0.0308 0.1355
vt 0.3875 0.0145
vt 0.3815 0.0554
vt 0.3643 0.0427
vt 0.0427 0.3643
vt 0.0146 0.3875
vt 0.0012 0.0975
vt 0.0349 0.0928
vt 0.4368 0.1224
vt 0.4055 0.1139
vt 0.4358 0.0974
vt 0.0555 0.3816
vt 0.0295 0.4076
vt 0.0054 0.0729
vt 0.0427 0.0727
vt 0.4020 0.0927
vt 0.4315 0.0728
vt 0.1225 0.4368
vt 0.3015 0.4062
vt 0.3146 0.4368
vt 0.0145 0.0495
vt 0.0554 0.0555
vt 0.3943 0.0727
vt 0.4224 0.0495
vt 0.1224 0.0002
vt 0.1139 0.0315
vt 0.0974 0.0012
vt 0.4368 0.3145
vt 0.4062 0.1355
vt 0.4075 0.0294
vt 0.0927 0.0350
vt 0.0728 0.0055
vt 0.4055 0.3230
vt 0.4062 0.3015
vt 0.0727 0.0427
vt 0.0495 0.0146
vt 0.4358 0.3395
vt 0.4020 0.3442
vt 0.3145 0.0002
vt 0.1355 0.0308
vt 0.0294 0.0295
vt 0.4316 0.3641
vt 0.3943 0.3643
vt 0.1140 0.4055
vt 0.1355 0.4062
vt 0.4225 0.3875
vt 0.3816 0.3815
vt 0.0308 0.3015
vt 0.0002 0.3146
vt 0.0975 0.4358
vt 0.0928 0.4020
vt 0.3231 0.4055
vt 0.3396 0.4358
vt 0.0729 0.4316
vt 0.0727 0.3943
vt 0.3443 0.4020
vt 0.3642 0.4315
vt 0.3230 0.0315
vt 0.3015 0.0308
vt 0.0495 0.4225
vt 0.3643 0.3943
vt 0.3875 0.4224
vt 0.3395 0.0012
vt 0.3442 0.0349
vt 0.0315 0.3231
vt 0.4076 0.4075
vt 0.3641 0.0054
vt 0.4379 0.3379
vt 0.4419 0.3625
vt 0.4856 0.4205
vt 0.5088 0.4294
vt 0.8227 0.4205
vt 0.8427 0.4057
vt 0.7500 0.4341
vt 0.4508 0.3857
vt 0.4656 0.4057
vt 0.8703 0.3379
vt 0.8711 0.3130
vt 0.5582 0.0002
vt 0.7749 0.0009
vt 0.7500 0.0002
vt 0.5333 0.0009
vt 0.5088 0.0049
vt 0.8227 0.0138
vt 0.7994 0.0049
vt 0.8574 0.0485
vt 0.8427 0.0286
vt 0.5334 0.4333
vt 0.5582 0.4341
vt 0.4855 0.0138
vt 0.4655 0.0286
vt 0.4371 0.3130
vt 0.4508 0.0486
vt 0.4419 0.0718
vt 0.8711 0.1212
vt 0.8575 0.3857
vt 0.8664 0.3624
vt 0.7749 0.4333
vt 0.7995 0.4294
vt 0.4379 0.0964
vt 0.4371 0.1212
vt 0.3943 0.0727
vt 0.4020 0.0927
vt 0.4020 0.3442
vt 0.3943 0.3643
vt 0.0555 0.3816
vt 0.3815 0.0554
vt 0.3816 0.3815
vt 0.1139 0.0315
vt 0.1355 0.0308
vt 0.0308 0.1355
vt 0.0315 0.1140
vt 0.3643 0.3943
vt 0.0349 0.0928
vt 0.4055 0.3230
vt 0.0350 0.3443
vt 0.0315 0.3231
vt 0.0427 0.0727
vt 0.0554 0.0555
vt 0.3231 0.4055
vt 0.3015 0.4062
vt 0.0308 0.3015
vt 0.0927 0.0350
vt 0.3443 0.4020
vt 0.3015 0.0308
vt 0.3230 0.0315
vt 0.0727 0.0427
vt 0.4055 0.1139
vt 0.4062 0.1355
vt 0.0427 0.3643
vt 0.4062 0.3015
vt 0.3442 0.0349
vt 0.3643 0.0427
vt 0.1355 0.4062
vt 0.1140 0.4055
vt 0.8714 0.0997
vt 0.3910 0.5657
vt 0.9998 0.7818
vt 0.7818 0.5656
vt 0.9998 0.3910
vn 0.0000 1.0000 0.0000
vn 0.0000 -1.0000 -0.0000
vn 0.0156 0.0000 0.9999
vn -0.0157 0.0000 0.9998
vn 0.0157 0.0000 0.9998
vn 0.9999 0.0000 -0.0156
vn 0.9998 0.0000 0.0157
vn 0.9998 0.0000 -0.0157
vn -0.9999 0.0000 0.0156
vn -0.9998 0.0000 -0.0157
vn -0.9998 0.0000 0.0157
vn -0.0156 0.0000 -0.9999
vn 0.0157 0.0000 -0.9998
vn -0.0157 0.0000 -0.9998
vn -0.0954 0.0000 0.9954
vn -0.0960 0.0000 0.9954
vn -0.2600 -0.0000 0.9656
vn -0.2606 0.0000 0.9654
vn -0.4807 -0.0000 0.8769
vn -0.4809 0.0000 0.8767
vn -0.7072 0.0000 0.7070
vn -0.7069 0.0000 0.7073
vn -0.8765 -0.0000 0.4813
vn -0.8771 0.0000 0.4803
vn -0.9653 -0.0000 0.2611
vn -0.9657 0.0000 0.2596
vn -0.9953 -0.0000 0.0963
vn -0.9955 0.0000 0.0951
vn -0.0951 0.0000 -0.9955
vn -0.0963 -0.0000 -0.9953
vn -0.2596 0.0000 -0.9657
vn -0.2611 -0.0000 -0.9653
vn -0.4803 0.0000 -0.8771
vn -0.4813 -0.0000 -0.8765
vn -0.7070 0.0000 -0.7072
vn -0.8767 0.0000 -0.4809
vn -0.8769 -0.0000 -0.4807
vn -0.9654 0.0000 -0.2606
vn -0.9656 -0.0000 -0.2600
vn -0.9954 0.0000 -0.0960
vn -0.9954 0.0000 -0.0954
vn -0.9998 0.0000 -0.0156
vn 0.9955 0.0000 -0.0951
vn 0.9953 -0.0000 -0.0963
vn 0.9657 0.0000 -0.2596
vn 0.9653 -0.0000 -0.2611
vn 0.8771 0.0000 -0.4803
vn 0.8765 -0.0000 -0.4813
vn 0.7072 0.0000 -0.7070
vn 0.4809 0.0000 -0.8767
vn 0.4807 -0.0000 -0.8769
vn 0.2606 0.0000 -0.9654
vn 0.2600 -0.0000 -0.9656
vn 0.0960 0.0000 -0.9954
vn 0.0954 0.0000 -0.9954
vn 0.0156 0.0000 -0.9998
vn 0.0951 0.0000 0.9955
vn 0.0963 -0.0000 0.9953
vn 0.2596 0.0000 0.9657
vn 0.2611 -0.0000 0.9653
vn 0.4803 0.0000 0.8771
vn 0.4813 -0.0000 0.8765
vn 0.7070 0.0000 0.7072
vn 0.8767 0.0000 0.4809
vn 0.8769 -0.0000 0.4807
vn 0.9654 0.0000 0.2606
vn 0.9656 -0.0000 0.2600
vn 0.9954 0.0000 0.0960
vn 0.9954 0.0000 0.0954
vn 0.9998 0.0000 0.0156
vn -0.0137 -0.9623 -0.2716
vn -0.0544 -0.9681 -0.2443
vn -0.0545 -0.9705 -0.2347
vn -0.0027 -0.9555 -0.2950
vn 0.0169 -0.9592 -0.2821
vn 0.0035 -0.9545 -0.2981
vn 0.1934 -0.9758 0.1016
vn 0.1498 -0.9773 0.1498
vn 0.1985 -0.9749 0.1010
vn -0.1011 -0.9749 -0.1984
vn -0.1017 -0.9758 -0.1933
vn 0.0135 -0.9622 -0.2717
vn 0.0543 -0.9681 -0.2445
vn -0.0026 -0.9555 0.2949
vn 0.0169 -0.9593 0.2819
vn 0.0137 -0.9623 0.2716
vn -0.1498 -0.9773 -0.1498
vn -0.1486 -0.9777 -0.1485
vn 0.0544 -0.9705 -0.2348
vn 0.1010 -0.9749 -0.1985
vn 0.0544 -0.9681 0.2443
vn 0.0545 -0.9705 0.2347
vn -0.2950 -0.9555 0.0027
vn -0.2980 -0.9545 0.0035
vn -0.2949 -0.9555 -0.0026
vn 0.1016 -0.9758 -0.1934
vn 0.1498 -0.9773 -0.1498
vn 0.1011 -0.9749 0.1984
vn 0.1017 -0.9758 0.1933
vn 0.2949 -0.9555 0.0026
vn 0.2819 -0.9593 -0.0169
vn 0.2716 -0.9623 -0.0137
vn 0.0027 -0.9555 0.2950
vn 0.0035 -0.9545 0.2980
vn 0.1486 -0.9777 0.1485
vn 0.2443 -0.9681 -0.0544
vn 0.2347 -0.9705 -0.0545
vn -0.0169 -0.9592 0.2821
vn -0.0035 -0.9545 0.2981
vn 0.1984 -0.9749 -0.1011
vn 0.1933 -0.9758 -0.1017
vn -0.0135 -0.9622 0.2717
vn -0.0543 -0.9681 0.2445
vn 0.2950 -0.9555 -0.0027
vn 0.2980 -0.9545 -0.0035
vn 0.1485 -0.9777 -0.1486
vn -0.0544 -0.9705 0.2348
vn -0.1010 -0.9749 0.1985
vn -0.2821 -0.9592 -0.0169
vn -0.2981 -0.9545 -0.0035
vn -0.1016 -0.9758 0.1934
vn -0.1498 -0.9773 0.1498
vn -0.0035 -0.9545 -0.2980
vn 0.0026 -0.9555 -0.2949
vn -0.2717 -0.9622 -0.0135
vn -0.2445 -0.9681 -0.0543
vn -0.2819 -0.9593 0.0169
vn -0.2716 -0.9623 0.0137
vn -0.2348 -0.9705 -0.0544
vn -0.1985 -0.9749 -0.1010
vn -0.2443 -0.9681 0.0544
vn -0.2347 -0.9705 0.0545
vn 0.2821 -0.9592 0.0169
vn 0.2981 -0.9545 0.0035
vn -0.1934 -0.9758 -0.1016
vn -0.1984 -0.9749 0.1011
vn -0.1933 -0.9758 0.1017
vn 0.2717 -0.9622 0.0135
vn 0.2445 -0.9681 0.0543
vn -0.0169 -0.9593 -0.2819
vn -0.1485 -0.9777 0.1486
vn 0.2348 -0.9705 0.0544
vn -0.0156 0.0000 0.9998
vn -0.7073 0.0000 -0.7069
vn 0.7069 0.0000 -0.7073
vn 0.7073 0.0000 0.7069
s off
f 110/1/1 111/2/1 112/3/1
f 113/4/2 115/5/2 116/6/2
f 110/1/1 109/7/1 111/2/1
f 113/4/2 114/8/2 115/5/2
s 1
f 152/9/3 117/10/4 23/11/5
f 178/12/6 22/13/7 169/14/8
f 157/15/9 150/16/10 1/17/11
f 164/18/12 34/19/13 13/20/14
f 117/10/4 203/21/15 118/22/16
f 118/22/16 154/23/17 119/24/18
f 119/24/18 153/25/19 120/26/20
f 120/26/20 155/27/21 121/28/22
f 155/29/21 3/30/23 121/31/22
f 156/32/24 201/33/25 3/30/23
f 159/34/26 148/35/27 201/33/25
f 158/36/28 1/17/11 148/35/27
f 13/20/14 165/37/29 164/18/12
f 161/38/30 166/39/31 165/37/29
f 125/40/32 126/41/33 166/39/31
f 124/42/34 127/43/35 126/41/33
f 127/43/35 123/44/36 128/45/37
f 128/45/37 122/46/38 167/47/39
f 167/47/39 160/48/40 168/49/41
f 168/49/41 150/16/10 205/50/42
f 169/14/8 183/51/43 178/12/6
f 180/52/44 184/53/45 183/51/43
f 38/54/46 214/55/47 184/53/45
f 39/56/48 215/57/49 214/55/47
f 215/58/49 131/59/50 136/60/51
f 136/60/51 36/61/52 135/62/53
f 135/62/53 212/63/54 133/64/55
f 133/64/55 34/19/13 134/65/56
f 23/11/5 210/66/57 152/9/3
f 130/67/58 173/68/59 210/66/57
f 129/69/60 174/70/61 173/68/59
f 26/71/62 211/72/63 174/70/61
f 211/72/63 25/73/64 179/74/65
f 179/74/65 171/75/66 177/76/67
f 177/76/67 206/77/68 175/78/69
f 175/78/69 22/13/7 176/79/70
f 31/80/1 112/3/1 32/81/1
f 16/82/71 189/83/72 72/84/73
f 98/85/2 144/86/2 114/8/2
f 163/87/74 223/88/75 192/89/76
f 172/90/77 220/91/78 219/92/79
f 72/84/73 217/93/80 73/94/81
f 84/95/82 197/96/83 223/88/75
f 208/97/84 195/98/85 80/99/86
f 73/94/81 145/100/87 15/101/88
f 213/102/89 198/103/90 197/96/83
f 80/99/86 221/104/91 81/105/92
f 12/106/93 216/107/94 149/108/95
f 85/109/96 224/110/97 198/103/90
f 81/105/92 222/111/98 209/112/99
f 35/113/100 146/114/101 37/115/102
f 63/116/103 196/117/104 208/97/84
f 209/112/99 220/91/78 79/118/105
f 37/115/102 200/119/106 181/120/107
f 63/116/103 138/121/108 137/122/109
f 181/120/107 199/123/110 182/124/111
f 64/125/112 185/126/113 138/121/108
f 170/127/114 147/128/115 35/113/100
f 182/124/111 224/110/97 86/129/116
f 65/130/117 186/131/118 185/126/113
f 12/106/93 142/132/119 141/133/120
f 66/134/121 187/135/122 186/131/118
f 163/87/74 191/136/123 162/137/124
f 14/138/125 143/139/126 142/132/119
f 149/108/95 140/140/127 2/141/128
f 70/142/129 99/143/130 143/139/126
f 2/141/128 139/144/131 68/145/132
f 170/127/114 194/146/133 193/147/134
f 71/148/135 145/100/87 99/143/130
f 68/145/132 188/149/136 202/150/137
f 78/151/138 218/152/139 194/146/133
f 162/137/124 190/153/140 16/82/71
f 202/150/137 187/135/122 67/154/141
f 24/155/142 219/92/79 218/152/139
f 20/156/1 109/7/1 21/157/1
f 74/158/1 109/7/1 19/159/1
f 91/160/1 110/1/1 43/161/1
f 89/162/1 109/7/1 110/1/1
f 77/163/1 109/7/1 75/164/1
f 41/165/1 110/1/1 40/166/1
f 4/167/1 112/3/1 111/2/1
f 82/168/1 112/3/1 27/169/1
f 69/170/1 111/2/1 6/171/1
f 30/172/1 112/3/1 29/173/1
f 33/174/1 112/3/1 83/175/1
f 18/176/1 109/7/1 17/177/1
f 7/178/1 111/2/1 11/179/1
f 76/180/1 111/2/1 109/7/1
f 10/181/1 111/2/1 9/182/1
f 28/183/1 110/1/1 112/3/1
f 87/184/1 110/1/1 42/185/1
f 88/186/1 110/1/1 90/187/1
f 8/188/1 111/2/1 5/189/1
f 57/190/2 104/191/2 116/6/2
f 44/192/2 45/193/2 113/4/2
f 144/86/2 100/194/2 114/8/2
f 103/195/2 57/190/2 116/6/2
f 45/193/2 46/196/2 113/4/2
f 107/197/2 108/198/2 115/5/2
f 58/199/2 105/200/2 115/5/2
f 46/196/2 48/201/2 113/4/2
f 105/200/2 59/202/2 115/5/2
f 93/203/2 44/192/2 113/4/2
f 50/204/2 101/205/2 114/8/2
f 60/206/2 106/207/2 115/5/2
f 94/208/2 47/209/2 113/4/2
f 49/210/2 115/5/2 114/8/2
f 61/211/2 107/197/2 115/5/2
f 48/201/2 95/212/2 113/4/2
f 52/213/2 53/214/2 116/6/2
f 106/207/2 62/215/2 115/5/2
f 101/205/2 49/210/2 114/8/2
f 55/216/2 56/217/2 116/6/2
f 47/209/2 114/8/2 113/4/2
f 51/218/2 50/204/2 114/8/2
f 59/202/2 60/206/2 115/5/2
f 108/198/2 116/6/2 115/5/2
f 100/194/2 51/218/2 114/8/2
f 62/215/2 61/211/2 115/5/2
f 56/217/2 113/4/2 116/6/2
f 92/219/2 93/203/2 113/4/2
f 53/214/2 102/220/2 116/6/2
f 95/212/2 94/208/2 113/4/2
f 102/220/2 54/221/2 116/6/2
f 96/222/2 97/223/2 114/8/2
f 54/221/2 103/195/2 116/6/2
f 97/223/2 98/85/2 114/8/2
f 104/191/2 55/216/2 116/6/2
f 152/9/3 151/224/143 117/10/4
f 178/12/6 176/79/70 22/13/7
f 157/15/9 205/50/42 150/16/10
f 164/18/12 134/65/56 34/19/13
f 117/10/4 151/224/143 203/21/15
f 118/22/16 203/21/15 154/23/17
f 119/24/18 154/23/17 153/25/19
f 120/26/20 153/25/19 155/27/21
f 155/29/21 156/32/24 3/30/23
f 156/32/24 159/34/26 201/33/25
f 159/34/26 158/36/28 148/35/27
f 158/36/28 157/15/9 1/17/11
f 13/20/14 161/38/30 165/37/29
f 161/38/30 125/40/32 166/39/31
f 125/40/32 124/42/34 126/41/33
f 124/42/34 204/225/144 127/43/35
f 127/43/35 204/225/144 123/44/36
f 128/45/37 123/44/36 122/46/38
f 167/47/39 122/46/38 160/48/40
f 168/49/41 160/48/40 150/16/10
f 169/14/8 180/52/44 183/51/43
f 180/52/44 38/54/46 184/53/45
f 38/54/46 39/56/48 214/55/47
f 39/56/48 132/226/145 215/57/49
f 215/58/49 132/227/145 131/59/50
f 136/60/51 131/59/50 36/61/52
f 135/62/53 36/61/52 212/63/54
f 133/64/55 212/63/54 34/19/13
f 23/11/5 130/67/58 210/66/57
f 130/67/58 129/69/60 173/68/59
f 129/69/60 26/71/62 174/70/61
f 26/71/62 207/228/146 211/72/63
f 211/72/63 207/228/146 25/73/64
f 179/74/65 25/73/64 171/75/66
f 177/76/67 171/75/66 206/77/68
f 175/78/69 206/77/68 22/13/7
f 31/80/1 28/183/1 112/3/1
f 16/82/71 190/153/140 189/83/72
f 163/87/74 84/95/82 223/88/75
f 172/90/77 79/118/105 220/91/78
f 72/84/73 189/83/72 217/93/80
f 84/95/82 213/102/89 197/96/83
f 208/97/84 196/117/104 195/98/85
f 73/94/81 217/93/80 145/100/87
f 213/102/89 85/109/96 198/103/90
f 80/99/86 195/98/85 221/104/91
f 12/106/93 141/133/120 216/107/94
f 85/109/96 86/129/116 224/110/97
f 81/105/92 221/104/91 222/111/98
f 35/113/100 147/128/115 146/114/101
f 63/116/103 137/122/109 196/117/104
f 209/112/99 222/111/98 220/91/78
f 37/115/102 146/114/101 200/119/106
f 63/116/103 64/125/112 138/121/108
f 181/120/107 200/119/106 199/123/110
f 64/125/112 65/130/117 185/126/113
f 170/127/114 193/147/134 147/128/115
f 182/124/111 199/123/110 224/110/97
f 65/130/117 66/134/121 186/131/118
f 12/106/93 14/138/125 142/132/119
f 66/134/121 67/154/141 187/135/122
f 163/87/74 192/89/76 191/136/123
f 14/138/125 70/142/129 143/139/126
f 149/108/95 216/107/94 140/140/127
f 70/142/129 71/148/135 99/143/130
f 2/141/128 140/140/127 139/144/131
f 170/127/114 78/151/138 194/146/133
f 71/148/135 15/101/88 145/100/87
f 68/145/132 139/144/131 188/149/136
f 78/151/138 24/155/142 218/152/139
f 162/137/124 191/136/123 190/153/140
f 202/150/137 188/149/136 187/135/122
f 24/155/142 172/90/77 219/92/79
f 20/156/1 76/180/1 109/7/1
f 74/158/1 75/164/1 109/7/1
f 91/160/1 90/187/1 110/1/1
f 89/162/1 17/177/1 109/7/1
f 77/163/1 21/157/1 109/7/1
f 41/165/1 42/185/1 110/1/1
f 4/167/1 27/169/1 112/3/1
f 82/168/1 29/173/1 112/3/1
f 69/170/1 4/167/1 111/2/1
f 30/172/1 83/175/1 112/3/1
f 33/174/1 32/81/1 112/3/1
f 18/176/1 19/159/1 109/7/1
f 7/178/1 6/171/1 111/2/1
f 76/180/1 5/189/1 111/2/1
f 10/181/1 11/179/1 111/2/1
f 28/183/1 40/166/1 110/1/1
f 87/184/1 43/161/1 110/1/1
f 88/186/1 89/162/1 110/1/1
f 8/188/1 9/182/1 111/2/1
f 49/210/2 58/199/2 115/5/2
f 47/209/2 96/222/2 114/8/2
f 108/198/2 52/213/2 116/6/2
f 56/217/2 92/219/2 113/4/2
