# Blender v2.77 (sub 0) OBJ File: 'Big Wall Picture.blend'
# www.blender.org
v 1.289619 0.908519 0.072669
v 1.289618 -0.908520 0.072669
v -1.289618 0.908520 0.072669
v -1.289619 -0.908519 0.072669
v 1.289619 0.908519 0.000146
v 1.289618 -0.908520 0.000146
v -1.289618 0.908520 0.000146
v -1.289619 -0.908519 0.000146
v -1.262262 0.878956 0.072669
v 1.262262 0.878955 0.072669
v 1.262262 -0.878956 0.072669
v -1.262262 -0.878955 0.072669
v -1.262262 0.878956 0.045046
v 1.262262 0.878955 0.045046
v 1.262262 -0.878956 0.045046
v -1.262262 -0.878955 0.045046
vt 0.6865 0.1863
vt 0.5023 0.0110
vt 0.6916 0.1849
vt 0.3098 0.1790
vt 0.3168 0.1864
vt 0.6766 0.0121
vt 0.3261 0.2590
vt 0.3261 0.0121
vt 0.5043 0.2833
vt 0.6966 0.1155
vt 0.5113 0.2907
vt 0.3104 0.1149
vt 0.3152 0.1096
vt 0.6965 0.1795
vt 0.5072 0.0057
vt 0.5013 0.2741
vt 0.6832 0.1081
vt 0.5043 0.2772
vt 0.3203 0.1082
vt 0.5023 0.0170
vt 0.6896 0.1081
vt 0.0079 0.9916
vt 0.9944 0.3047
vt 0.9944 0.9916
vt 0.6836 0.1895
vt 0.5073 0.2740
vt 0.5053 0.0202
vt 0.3232 0.1863
vt 0.4953 0.0036
vt 0.6766 0.2590
vt 0.4994 0.2886
vt 0.6802 0.1050
vt 0.0079 0.3047
vt 0.4994 0.0202
vt 0.3232 0.1050
vt 0.3262 0.1895
vn -0.0000 -0.0000 1.0000
vn -1.0000 0.0000 0.0000
vn 0.0000 -0.0000 -1.0000
vn 1.0000 -0.0000 0.0000
vn 0.0000 1.0000 0.0000
vn -0.0000 -1.0000 0.0000
s off
f 11/1/1 4/2/1 2/3/1
f 7/4/2 4/2/2 3/5/2
f 5/6/3 8/7/3 7/8/3
f 1/9/4 6/10/4 5/11/4
f 1/9/5 7/12/5 3/13/5
f 6/14/6 4/2/6 8/15/6
f 14/16/2 11/17/2 10/18/2
f 9/19/1 1/9/1 3/13/1
f 12/20/1 3/5/1 4/2/1
f 10/18/1 2/21/1 1/9/1
f 13/22/1 15/23/1 14/24/1
f 15/25/5 12/20/5 11/1/5
f 9/19/6 14/26/6 10/18/6
f 16/27/4 9/28/4 12/20/4
f 11/1/1 12/20/1 4/2/1
f 7/4/2 8/29/2 4/2/2
f 5/6/3 6/30/3 8/7/3
f 1/9/4 2/21/4 6/10/4
f 1/9/5 5/31/5 7/12/5
f 6/14/6 2/3/6 4/2/6
f 14/16/2 15/32/2 11/17/2
f 9/19/1 10/18/1 1/9/1
f 12/20/1 9/28/1 3/5/1
f 10/18/1 11/17/1 2/21/1
f 13/22/1 16/33/1 15/23/1
f 15/25/5 16/34/5 12/20/5
f 9/19/6 13/35/6 14/26/6
f 16/27/4 13/36/4 9/28/4
