# Blender v2.77 (sub 0) OBJ File: 'DVD Case.blend'
# www.blender.org
v 0.185353 0.011478 -0.136467
v 0.185353 -0.011478 -0.136467
v 0.185353 0.011478 0.133408
v 0.185353 -0.011478 0.133408
v -0.185353 0.011478 -0.136467
v -0.185353 -0.011478 -0.136467
v -0.185353 0.011478 0.133408
v -0.185353 -0.011478 0.133408
v -0.187908 -0.011245 0.130703
v -0.187908 0.011245 0.130703
v -0.187908 -0.011245 -0.134903
v -0.187908 0.011245 -0.134903
v 0.179861 -0.011138 0.135328
v 0.179861 0.011138 0.135328
v -0.179861 -0.011138 0.135328
v -0.179861 0.011138 0.135328
v 0.188975 0.011178 -0.133743
v 0.188975 -0.011178 -0.133743
v 0.188975 -0.011178 0.129929
v 0.188975 0.011178 0.129929
v 0.185353 0.006887 -0.139673
v 0.185353 0.002296 -0.141133
v 0.185353 -0.002296 -0.141133
v 0.185353 -0.006887 -0.139673
v 0.185353 -0.006887 0.133408
v 0.185353 -0.002296 0.133408
v 0.185353 0.002296 0.133408
v 0.185353 0.006887 0.133408
v -0.185353 -0.006887 0.133408
v -0.185353 -0.002296 0.133408
v -0.185353 0.002296 0.133408
v -0.185353 0.006887 0.133408
v -0.185353 -0.006887 -0.139673
v -0.185353 -0.002296 -0.141133
v -0.185353 0.002296 -0.141133
v -0.185353 0.006887 -0.139673
v -0.187908 -0.006747 0.130703
v -0.187908 -0.002249 0.130703
v -0.187908 0.002249 0.130703
v -0.187908 0.006747 0.130703
v -0.187908 -0.006747 -0.137747
v -0.187908 -0.002249 -0.138960
v -0.187908 0.002249 -0.138960
v -0.187908 0.006747 -0.137747
v 0.179861 -0.006683 0.135328
v 0.179861 -0.002228 0.135328
v 0.179861 0.002228 0.135328
v 0.179861 0.006683 0.135328
v -0.179861 -0.006683 0.135328
v -0.179861 -0.002228 0.135328
v -0.179861 0.002228 0.135328
v -0.179861 0.006683 0.135328
v 0.188975 0.006707 -0.136370
v 0.188975 0.002236 -0.137468
v 0.188975 -0.002236 -0.137468
v 0.188975 -0.006707 -0.136370
v 0.188975 -0.006707 0.129929
v 0.188975 -0.002236 0.129929
v 0.188975 0.002236 0.129929
v 0.188975 0.006707 0.129929
v 0.092677 -0.011478 0.133408
v 0.092677 0.011478 0.133408
v 0.092677 -0.011478 -0.136467
v 0.092677 0.011478 -0.136467
v 0.089930 -0.011138 0.135328
v 0.089930 0.011138 0.135328
v 0.089930 -0.006683 0.135328
v 0.094640 -0.002228 0.135328
v 0.094640 0.002228 0.135328
v 0.089930 0.006683 0.135328
v 0.092677 -0.006887 -0.139673
v 0.092677 -0.002296 -0.141133
v 0.092677 0.002296 -0.141133
v 0.092677 0.006887 -0.139673
v -0.082564 -0.011478 0.133408
v -0.082564 0.011478 -0.136467
v -0.080117 -0.011138 0.135328
v -0.082564 -0.006887 -0.139673
v -0.082564 -0.002296 -0.141133
v -0.082564 0.002296 -0.141133
v -0.082564 0.006887 -0.139673
v -0.082564 0.011478 0.133408
v -0.082564 -0.011478 -0.136467
v -0.080117 0.011138 0.135328
v -0.080117 -0.006683 0.135328
v -0.084826 -0.002228 0.135328
v -0.084826 0.002228 0.135328
v -0.080117 0.006683 0.135328
v -0.080117 -0.006683 0.124694
v 0.089930 -0.006683 0.124694
v -0.084826 -0.002228 0.124694
v 0.094640 -0.002228 0.124694
v -0.084826 0.002228 0.124694
v 0.094640 0.002228 0.124694
v -0.080117 0.006683 0.124694
v 0.089930 0.006683 0.124694
v 0.185353 -0.006887 -0.139673
v 0.185353 -0.011478 -0.136467
v 0.185353 -0.011478 -0.136467
v -0.185353 0.006887 -0.139673
v -0.185353 0.011478 -0.136467
v -0.185353 0.011478 -0.136467
v 0.092677 -0.011478 -0.136467
v -0.082564 0.011478 -0.136467
v -0.187908 0.006747 0.130703
v -0.187908 0.011245 0.130703
v -0.187908 0.011245 0.130703
v -0.187908 -0.011245 0.130703
v -0.187908 -0.011245 0.130703
v -0.187908 -0.011245 -0.134903
v -0.187908 -0.011245 -0.134903
v -0.187908 0.006747 -0.137747
v -0.187908 0.011245 -0.134903
v -0.187908 0.011245 -0.134903
v -0.185353 0.011478 0.133408
v -0.185353 -0.011478 -0.136467
v -0.185353 -0.011478 -0.136467
v -0.185353 -0.011478 0.133408
v -0.080117 -0.011138 0.135328
v -0.179861 -0.011138 0.135328
v 0.089930 0.011138 0.135328
v 0.179861 0.011138 0.135328
v 0.185353 -0.011478 0.133408
v 0.179861 -0.011138 0.135328
v 0.185353 0.011478 0.133408
v -0.179861 0.011138 0.135328
v 0.188975 -0.006707 -0.136370
v 0.188975 -0.011178 -0.133743
v 0.188975 -0.011178 -0.133743
v 0.188975 -0.011178 0.129929
v 0.188975 -0.011178 0.129929
v 0.188975 0.006707 0.129929
v 0.188975 0.011178 0.129929
v 0.188975 0.011178 0.129929
v 0.188975 0.011178 -0.133743
v 0.188975 0.011178 -0.133743
v 0.185353 0.011478 -0.136467
v 0.185353 0.011478 -0.136467
v 0.185353 0.006887 -0.139673
v 0.185353 0.002296 -0.141133
v 0.185353 -0.002296 -0.141133
v -0.185353 -0.006887 -0.139673
v -0.185353 -0.002296 -0.141133
v -0.185353 0.002296 -0.141133
v -0.187908 -0.006747 0.130703
v -0.187908 -0.002249 0.130703
v -0.187908 0.002249 0.130703
v -0.187908 -0.006747 -0.137747
v -0.187908 -0.002249 -0.138960
v -0.187908 0.002249 -0.138960
v 0.188975 0.006707 -0.136370
v 0.188975 0.002236 -0.137468
v 0.188975 -0.002236 -0.137468
v 0.188975 -0.006707 0.129929
v 0.188975 -0.002236 0.129929
v 0.188975 0.002236 0.129929
v -0.082564 -0.011478 -0.136467
v 0.092677 0.011478 -0.136467
v 0.089930 -0.011138 0.135328
v -0.080117 0.011138 0.135328
v -0.080117 -0.006683 0.135328
v -0.080117 -0.006683 0.135328
v 0.089930 -0.006683 0.135328
v 0.089930 -0.006683 0.135328
v -0.080117 -0.006683 0.124694
v -0.080117 -0.006683 0.124694
v -0.084826 -0.002228 0.135328
v -0.084826 -0.002228 0.135328
v -0.084826 -0.002228 0.124694
v -0.084826 -0.002228 0.124694
v -0.080117 0.006683 0.135328
v -0.080117 0.006683 0.135328
v 0.089930 0.006683 0.135328
v 0.089930 0.006683 0.135328
v 0.094640 0.002228 0.135328
v 0.094640 0.002228 0.135328
v 0.094640 -0.002228 0.135328
v 0.094640 -0.002228 0.135328
v -0.084826 0.002228 0.135328
v -0.084826 0.002228 0.135328
v 0.089930 -0.006683 0.124694
v 0.089930 -0.006683 0.124694
v -0.080117 0.006683 0.124694
v -0.080117 0.006683 0.124694
v 0.089930 0.006683 0.124694
v 0.089930 0.006683 0.124694
v 0.094640 0.002228 0.124694
v 0.094640 0.002228 0.124694
v 0.094640 -0.002228 0.124694
v 0.094640 -0.002228 0.124694
v -0.084826 0.002228 0.124694
v -0.084826 0.002228 0.124694
vt 0.6609 0.0264
vt 0.6658 0.0230
vt 0.6610 0.0210
vt 0.6609 0.0406
vt 0.6553 0.0443
vt 0.6609 0.0460
vt 0.0176 0.0165
vt 0.4001 0.0199
vt 0.4046 0.0185
vt 0.5205 0.8304
vt 0.5107 0.9924
vt 0.5107 0.8304
vt 0.5205 0.3444
vt 0.9922 0.5241
vt 0.5205 0.5241
vt 0.4761 0.9924
vt 0.0043 0.8304
vt 0.4761 0.8304
vt 0.4000 0.0250
vt 0.0198 0.0202
vt 0.0160 0.0268
vt 0.4003 0.0461
vt 0.0183 0.0563
vt 0.4048 0.0474
vt 0.4045 0.0413
vt 0.4003 0.0461
vt 0.4048 0.0474
vt 0.0160 0.0268
vt 0.0156 0.0188
vt 0.0114 0.0260
vt 0.5077 0.0244
vt 0.4109 0.0254
vt 0.5077 0.0275
vt 0.4044 0.0247
vt 0.4109 0.0206
vt 0.4046 0.0185
vt 0.5788 0.0239
vt 0.6553 0.0227
vt 0.6610 0.0210
vt 0.5061 0.0426
vt 0.4110 0.0453
vt 0.9770 0.0208
vt 0.6657 0.0271
vt 0.9800 0.0262
vt 0.9801 0.0421
vt 0.9826 0.0488
vt 0.9860 0.0428
vt 0.6658 0.0230
vt 0.9801 0.0165
vt 0.9802 0.0518
vt 0.6657 0.0440
vt 0.6609 0.0460
vt 0.9824 0.0195
vt 0.9800 0.0262
vt 0.9859 0.0254
vt 0.9813 0.0315
vt 0.9875 0.0312
vt 0.9876 0.0370
vt 0.9813 0.0368
vt 0.9771 0.0475
vt 0.6657 0.0400
vt 0.6657 0.0440
vt 0.9801 0.0421
vt 0.6657 0.0357
vt 0.9813 0.0315
vt 0.9813 0.0368
vt 0.6657 0.0313
vt 0.4110 0.0453
vt 0.4110 0.0405
vt 0.4043 0.0357
vt 0.4109 0.0304
vt 0.4043 0.0303
vt 0.5077 0.0381
vt 0.5077 0.0412
vt 0.5041 0.0346
vt 0.5041 0.0309
vt 0.4109 0.0355
vt 0.0162 0.0540
vt 0.0163 0.0460
vt 0.0117 0.0470
vt 0.0145 0.0396
vt 0.0096 0.0400
vt 0.0095 0.0330
vt 0.0144 0.0332
vt 0.4001 0.0199
vt 0.4000 0.0250
vt 0.4000 0.0303
vt 0.4001 0.0410
vt 0.4001 0.0410
vt 0.0204 0.0525
vt 0.4003 0.0461
vt 0.4000 0.0357
vt 0.0163 0.0460
vt 0.4000 0.0303
vt 0.0145 0.0396
vt 0.0144 0.0332
vt 0.4858 0.8304
vt 0.4761 0.9924
vt 0.4761 0.8304
vt 0.4943 0.8304
vt 0.4858 0.9924
vt 0.5023 0.8304
vt 0.4943 0.9924
vt 0.5023 0.9924
vt 0.6553 0.0227
vt 0.6553 0.0269
vt 0.6609 0.0312
vt 0.6552 0.0313
vt 0.6609 0.0358
vt 0.6552 0.0401
vt 0.6657 0.0440
vt 0.6657 0.0400
vt 0.6657 0.0357
vt 0.6657 0.0271
vt 0.5107 0.5241
vt 0.5023 0.5241
vt 0.4943 0.5241
vt 0.4858 0.5241
vt 0.4761 0.5241
vt 0.5803 0.0314
vt 0.5803 0.0348
vt 0.6552 0.0357
vt 0.5770 0.0381
vt 0.5770 0.0409
vt 0.6553 0.0443
vt 0.5787 0.0422
vt 0.5061 0.0230
vt 0.5770 0.0252
vt 0.5770 0.0281
vt 0.0043 0.5241
vt 0.4761 0.5241
vt 0.5205 0.8304
vt 0.9922 0.9924
vt 0.5205 0.9924
vt 0.5205 0.5241
vt 0.5205 0.3444
vt 0.5107 0.3444
vt 0.0043 0.3444
vt 0.4761 0.3444
vt 0.4109 0.0206
vt 0.4858 0.3444
vt 0.4761 0.3444
vt 0.4943 0.3444
vt 0.5023 0.3444
vt 0.5075 0.0323
vt 0.5077 0.0275
vt 0.5041 0.0309
vt 0.5758 0.0316
vt 0.5803 0.0314
vt 0.5770 0.0281
vt 0.5089 0.0344
vt 0.5041 0.0346
vt 0.5077 0.0381
vt 0.5770 0.0409
vt 0.5770 0.0252
vt 0.9922 0.8304
vt 0.5758 0.0316
vt 0.5075 0.0323
vt 0.5772 0.0327
vt 0.5075 0.0332
vt 0.5772 0.0335
vt 0.5089 0.0344
vt 0.5758 0.0345
vt 0.5772 0.0327
vt 0.5803 0.0348
vt 0.5803 0.0314
vt 0.5075 0.0332
vt 0.5041 0.0309
vt 0.5041 0.0346
vt 0.5758 0.0345
vt 0.5077 0.0381
vt 0.5770 0.0381
vt 0.5772 0.0335
vt 0.5770 0.0381
vt 0.5803 0.0348
vt 0.5089 0.0311
vt 0.5770 0.0281
vt 0.5077 0.0275
vt 0.0198 0.0202
vt 0.5205 0.9924
vt 0.9922 0.3444
vt 0.0043 0.9924
vt 0.4001 0.0199
vt 0.0204 0.0525
vt 0.0198 0.0202
vt 0.5077 0.0412
vt 0.6658 0.0230
vt 0.9771 0.0475
vt 0.9770 0.0208
vt 0.9771 0.0475
vt 0.9770 0.0208
vt 0.0204 0.0525
vt 0.4000 0.0357
vt 0.6657 0.0313
vt 0.5077 0.0244
vt 0.5089 0.0311
vt 0.5772 0.0327
vt 0.5075 0.0332
vt 0.5089 0.0311
vt 0.5772 0.0335
vt 0.5075 0.0323
vt 0.5089 0.0344
vt 0.5758 0.0345
vt 0.5758 0.0316
vn 0.5233 0.0000 0.8521
vn 0.6928 0.0000 0.7211
vn 0.1704 0.0000 0.9854
vn -0.0358 0.9993 0.0000
vn -0.0907 0.9958 0.0000
vn -0.0258 0.9994 0.0223
vn 0.0000 0.5725 -0.8199
vn 0.0000 0.4429 -0.8966
vn 0.0000 0.9962 0.0876
vn 0.0000 1.0000 0.0000
vn 0.0306 -0.9995 0.0000
vn 0.0000 -0.9962 0.0876
vn 0.0000 -1.0000 0.0000
vn -1.0000 0.0000 0.0000
vn -0.0907 -0.9958 0.0000
vn -0.0358 -0.9993 0.0000
vn -0.0258 -0.9994 0.0223
vn -0.5439 0.0000 0.8391
vn -0.7270 0.0000 0.6866
vn -0.5437 0.0000 0.8393
vn -0.5640 0.3623 -0.7420
vn -0.5096 0.4703 -0.7205
vn -0.5879 0.3329 -0.7372
vn 0.0000 0.0000 1.0000
vn -0.1673 0.0000 0.9859
vn -0.1704 0.0000 0.9854
vn 0.0000 0.9846 0.1744
vn 0.0245 0.9995 0.0219
vn 0.0000 -0.9846 0.1744
vn 1.0000 0.0000 0.0000
vn 0.6318 -0.3275 -0.7025
vn 0.5896 -0.4338 -0.6813
vn 0.6602 -0.3054 -0.6861
vn 0.0824 0.9966 0.0000
vn 0.0306 0.9995 0.0000
vn 0.0824 -0.9966 0.0000
vn 0.0245 -0.9995 0.0219
vn 0.5896 0.4338 -0.6813
vn 0.6318 0.3275 -0.7025
vn 0.6602 0.3054 -0.6861
vn 0.6995 0.1035 -0.7071
vn 0.7084 0.1022 -0.6983
vn 0.7084 -0.1022 -0.6983
vn 0.6995 -0.1035 -0.7071
vn -0.5096 -0.4703 -0.7205
vn -0.5640 -0.3623 -0.7420
vn -0.5879 -0.3329 -0.7372
vn -0.6370 -0.1183 -0.7617
vn -0.6450 -0.1114 -0.7559
vn -0.6450 0.1114 -0.7559
vn -0.6370 0.1183 -0.7617
vn 0.0000 -0.4429 -0.8966
vn 0.0000 -0.5725 -0.8199
vn 0.0000 -0.1534 -0.9882
vn 0.0000 0.1534 -0.9882
vn 0.1673 0.0000 0.9859
vn 0.6872 -0.7264 0.0000
vn -0.6872 -0.7264 0.0000
vn 0.6872 0.7264 0.0000
vn -0.6872 0.7264 0.0000
vn -0.4926 0.4651 -0.7355
vn 0.5680 -0.4169 -0.7096
vn 0.5680 0.4169 -0.7096
vn -0.4926 -0.4651 -0.7355
s 1
f 28/1/1 133/2/2 125/3/1
f 25/4/1 124/5/3 4/6/1
f 102/7/4 107/8/5 7/9/6
f 158/10/7 139/11/8 74/12/8
f 102/13/4 82/14/9 104/15/10
f 99/16/11 61/17/12 103/18/13
f 105/19/14 113/20/14 112/21/14
f 108/22/15 116/23/16 118/24/17
f 29/25/18 109/26/19 8/27/20
f 44/28/21 101/29/22 100/30/23
f 84/31/24 52/32/25 171/33/24
f 32/34/18 126/35/26 115/36/20
f 62/37/9 14/38/27 3/39/28
f 75/40/12 120/41/29 118/24/17
f 135/42/30 60/43/30 151/44/30
f 127/45/31 98/46/32 97/47/33
f 20/48/34 137/49/35 3/39/28
f 99/50/11 130/51/36 123/52/37
f 1/53/38 53/54/39 21/55/40
f 21/55/40 152/56/41 140/57/42
f 152/56/41 141/58/43 140/57/42
f 153/59/44 97/47/33 141/58/43
f 18/60/30 154/61/30 131/62/30
f 56/63/30 155/64/30 154/61/30
f 54/65/30 155/64/30 55/66/30
f 151/44/30 156/67/30 54/65/30
f 15/68/26 29/25/18 8/27/20
f 49/69/25 30/70/18 29/25/18
f 30/70/18 51/71/25 31/72/18
f 31/72/18 52/32/25 32/34/18
f 161/73/24 15/68/26 77/74/24
f 168/75/24 49/69/25 161/73/24
f 179/76/24 50/77/25 168/75/24
f 179/76/24 52/32/25 51/71/25
f 117/78/45 148/79/46 142/80/47
f 142/80/47 149/81/48 143/82/49
f 149/81/48 144/83/50 143/82/49
f 150/84/51 100/30/23 144/83/50
f 10/85/19 32/34/18 115/36/20
f 40/86/19 31/72/18 32/34/18
f 147/87/19 30/70/18 31/72/18
f 30/70/18 145/88/19 29/25/18
f 37/89/14 11/90/14 9/91/14
f 38/92/14 41/93/14 37/89/14
f 39/94/14 42/95/14 38/92/14
f 39/94/14 112/21/14 43/96/14
f 71/97/52 2/98/53 63/99/53
f 72/100/54 24/101/52 71/97/52
f 73/102/55 23/103/54 72/100/54
f 74/12/8 22/104/55 73/102/55
f 122/105/3 28/1/1 125/3/1
f 48/106/56 27/107/1 28/1/1
f 47/108/56 26/109/1 27/107/1
f 26/109/1 45/110/56 25/4/1
f 19/111/2 25/4/1 4/6/1
f 57/112/2 26/109/1 25/4/1
f 58/113/2 27/107/1 26/109/1
f 27/107/1 132/114/2 28/1/1
f 81/115/8 73/102/55 80/116/55
f 80/116/55 72/100/54 79/117/54
f 79/117/54 71/97/52 78/118/52
f 78/118/52 63/99/53 157/119/53
f 48/106/56 175/120/24 47/108/56
f 47/108/56 177/121/24 46/122/56
f 45/110/56 177/121/24 163/123/24
f 45/110/56 159/124/24 124/5/3
f 13/125/29 61/126/12 123/52/37
f 82/127/9 121/128/27 62/37/9
f 122/105/3 173/129/24 48/106/56
f 103/18/13 75/130/12 83/131/13
f 64/132/10 3/133/28 137/134/35
f 76/135/7 74/12/8 81/115/8
f 5/136/7 81/115/8 36/137/8
f 83/131/13 118/138/17 116/139/16
f 16/140/27 82/127/9 7/9/6
f 33/141/52 157/119/53 6/142/53
f 34/143/54 78/118/52 33/141/52
f 35/144/55 79/117/54 34/143/54
f 36/137/8 80/116/55 35/144/55
f 192/145/57 172/146/57 180/147/57
f 186/148/58 176/149/58 174/150/58
f 165/151/59 167/152/59 162/153/59
f 163/123/24 77/74/24 159/124/24
f 65/154/29 75/40/12 61/126/12
f 66/155/24 171/33/24 173/129/24
f 104/15/10 62/156/9 64/132/10
f 185/157/24 191/158/24 187/159/24
f 187/159/24 170/160/24 189/161/24
f 189/161/24 166/162/24 181/163/24
f 94/164/14 178/165/14 69/166/14
f 91/167/30 87/168/30 86/169/30
f 182/170/10 85/171/10 164/172/10
f 92/173/60 67/174/60 68/175/60
f 95/176/13 70/177/13 88/178/13
f 28/1/1 132/114/2 133/2/2
f 25/4/1 45/110/56 124/5/3
f 102/7/4 114/179/5 107/8/5
f 158/10/7 138/180/7 139/11/8
f 102/13/4 7/181/6 82/14/9
f 99/16/11 123/182/37 61/17/12
f 105/19/14 106/183/14 113/20/14
f 108/22/15 110/184/15 116/23/16
f 29/25/18 145/88/19 109/26/19
f 44/28/21 12/185/61 101/29/22
f 84/31/24 126/35/26 52/32/25
f 32/34/18 52/32/25 126/35/26
f 62/37/9 121/128/27 14/38/27
f 75/40/12 119/186/29 120/41/29
f 135/42/30 134/187/30 60/43/30
f 127/45/31 128/188/62 98/46/32
f 20/48/34 136/189/34 137/49/35
f 99/50/11 129/190/36 130/51/36
f 1/53/38 17/191/63 53/54/39
f 21/55/40 53/54/39 152/56/41
f 152/56/41 153/59/44 141/58/43
f 153/59/44 127/45/31 97/47/33
f 18/60/30 56/63/30 154/61/30
f 56/63/30 55/66/30 155/64/30
f 54/65/30 156/67/30 155/64/30
f 151/44/30 60/43/30 156/67/30
f 15/68/26 49/69/25 29/25/18
f 49/69/25 50/77/25 30/70/18
f 30/70/18 50/77/25 51/71/25
f 31/72/18 51/71/25 52/32/25
f 161/73/24 49/69/25 15/68/26
f 168/75/24 50/77/25 49/69/25
f 179/76/24 51/71/25 50/77/25
f 179/76/24 171/33/24 52/32/25
f 117/78/45 111/192/64 148/79/46
f 142/80/47 148/79/46 149/81/48
f 149/81/48 150/84/51 144/83/50
f 150/84/51 44/28/21 100/30/23
f 10/85/19 40/86/19 32/34/18
f 40/86/19 147/87/19 31/72/18
f 147/87/19 146/193/19 30/70/18
f 30/70/18 146/193/19 145/88/19
f 37/89/14 41/93/14 11/90/14
f 38/92/14 42/95/14 41/93/14
f 39/94/14 43/96/14 42/95/14
f 39/94/14 105/19/14 112/21/14
f 71/97/52 24/101/52 2/98/53
f 72/100/54 23/103/54 24/101/52
f 73/102/55 22/104/55 23/103/54
f 74/12/8 139/11/8 22/104/55
f 122/105/3 48/106/56 28/1/1
f 48/106/56 47/108/56 27/107/1
f 47/108/56 46/122/56 26/109/1
f 26/109/1 46/122/56 45/110/56
f 19/111/2 57/112/2 25/4/1
f 57/112/2 58/113/2 26/109/1
f 58/113/2 59/194/2 27/107/1
f 27/107/1 59/194/2 132/114/2
f 81/115/8 74/12/8 73/102/55
f 80/116/55 73/102/55 72/100/54
f 79/117/54 72/100/54 71/97/52
f 78/118/52 71/97/52 63/99/53
f 48/106/56 173/129/24 175/120/24
f 47/108/56 175/120/24 177/121/24
f 45/110/56 46/122/56 177/121/24
f 45/110/56 163/123/24 159/124/24
f 13/125/29 65/154/29 61/126/12
f 82/127/9 160/195/27 121/128/27
f 122/105/3 66/155/24 173/129/24
f 103/18/13 61/17/12 75/130/12
f 64/132/10 62/156/9 3/133/28
f 76/135/7 158/10/7 74/12/8
f 5/136/7 76/135/7 81/115/8
f 83/131/13 75/130/12 118/138/17
f 16/140/27 160/195/27 82/127/9
f 33/141/52 78/118/52 157/119/53
f 34/143/54 79/117/54 78/118/52
f 35/144/55 80/116/55 79/117/54
f 36/137/8 81/115/8 80/116/55
f 192/145/57 184/196/57 172/146/57
f 186/148/58 188/197/58 176/149/58
f 165/151/59 169/198/59 167/152/59
f 163/123/24 161/73/24 77/74/24
f 65/154/29 119/186/29 75/40/12
f 66/155/24 84/31/24 171/33/24
f 104/15/10 82/14/9 62/156/9
f 185/157/24 183/199/24 191/158/24
f 187/159/24 191/158/24 170/160/24
f 189/161/24 170/160/24 166/162/24
f 94/164/14 190/200/14 178/165/14
f 91/167/30 93/201/30 87/168/30
f 182/170/10 89/202/10 85/171/10
f 92/173/60 90/203/60 67/174/60
f 95/176/13 96/204/13 70/177/13
