# Blender v2.77 (sub 0) OBJ File: 'Lamp.blend'
# www.blender.org
v -0.401125 -0.018456 -0.401125
v 0.401125 0.018456 0.401125
v 0.005737 3.325595 -0.026180
v 0.021420 0.012692 0.003162
v 0.021420 3.325595 0.003162
v 0.000818 0.012692 0.023765
v 0.000818 3.325595 0.023765
v -0.022840 0.012692 0.016588
v -0.022840 3.325595 0.016588
v -0.028524 0.012692 0.008081
v -0.028524 3.325595 0.008081
v -0.026101 0.012692 -0.016522
v -0.026101 3.325595 -0.016522
v -0.018866 0.012692 -0.023757
v -0.018866 3.325595 -0.023757
v -0.056076 1.223601 0.416106
v 0.107753 1.223601 0.405107
v 0.184915 1.223601 0.375925
v 0.315022 1.223601 0.275762
v 0.396895 1.223601 0.133433
v 0.418068 1.223601 -0.029393
v 0.375319 1.223601 -0.187928
v 0.275155 1.223601 -0.318035
v 0.132826 1.223601 -0.399908
v -0.030000 1.223601 -0.421081
v -0.111372 1.223601 -0.407514
v -0.258521 1.223601 -0.334657
v -0.366587 1.223601 -0.211035
v -0.419119 1.223601 -0.055469
v -0.408120 1.223601 0.108360
v -0.335264 1.223601 0.255508
v -0.211642 1.223601 0.363574
v 0.107753 4.293803 0.405107
v 0.184915 4.293803 0.375925
v 0.396895 4.293803 0.133433
v 0.418068 4.293803 -0.029393
v 0.275155 4.293803 -0.318035
v -0.030000 4.293803 -0.421081
v -0.366587 4.293803 -0.211036
v -0.353862 1.214314 0.269826
v -0.353862 4.293803 0.269826
v -0.430783 1.214314 0.114471
v -0.430782 4.293803 0.114471
v -0.442396 1.214314 -0.058495
v -0.442395 4.293803 -0.058496
v -0.386933 1.214314 -0.222739
v -0.386933 4.293803 -0.222739
v -0.272839 1.214314 -0.353256
v -0.272839 4.293803 -0.353256
v -0.117483 1.214314 -0.430176
v -0.117483 4.293803 -0.430176
v -0.031572 1.214314 -0.444500
v 0.140336 1.214314 -0.422146
v 0.140336 4.293803 -0.422146
v 0.290603 1.214314 -0.335707
v 0.290604 4.293803 -0.335707
v 0.396354 1.214314 -0.198343
v 0.396354 4.293803 -0.198343
v 0.441487 1.214314 -0.030965
v 0.419133 1.214314 0.140943
v 0.332694 1.214314 0.291210
v 0.332694 4.293803 0.291210
v 0.195330 1.214314 0.396960
v 0.195330 4.293803 0.396960
v 0.113864 1.214314 0.427770
v -0.059102 1.214314 0.439382
v -0.223346 1.214314 0.383920
v -0.223346 4.293803 0.383920
v -0.401125 -0.018456 0.401125
v -0.401125 0.018456 0.401125
v -0.401125 0.018456 -0.401125
v 0.401125 -0.018456 -0.401125
v 0.401125 0.018456 -0.401125
v 0.401125 -0.018456 0.401125
v -0.004298 0.012692 -0.028176
v 0.005737 0.012692 -0.026180
v -0.004298 3.325595 -0.028176
v 0.014244 0.012692 -0.020496
v 0.014244 3.325595 -0.020496
v 0.019928 0.012692 -0.011988
v 0.019928 3.325595 -0.011988
v 0.021420 0.012692 -0.007069
v 0.021420 3.325595 -0.007069
v 0.017505 0.012692 0.012615
v 0.017505 3.325595 0.012615
v 0.010270 0.012692 0.019849
v 0.010270 3.325595 0.019849
v -0.004298 0.012692 0.024269
v -0.004298 3.325595 0.024269
v -0.014333 0.012692 0.022273
v -0.014333 3.325595 0.022273
v -0.030520 0.012692 -0.001954
v -0.030520 3.325595 -0.001954
v -0.030017 0.012692 -0.007069
v -0.030017 3.325595 -0.007069
v -0.014333 0.012692 -0.026180
v -0.014333 3.325595 -0.026180
v -0.335264 4.293803 0.255508
v -0.211642 4.293803 0.363574
v -0.408120 4.293803 0.108360
v -0.419119 4.293803 -0.055469
v -0.258521 4.293803 -0.334657
v -0.031572 4.293803 -0.444501
v -0.111372 4.293803 -0.407514
v 0.132826 4.293803 -0.399908
v 0.375319 4.293803 -0.187928
v 0.441487 4.293803 -0.030966
v 0.419133 4.293803 0.140942
v 0.315022 4.293803 0.275762
v 0.113864 4.293803 0.427770
v -0.059102 4.293803 0.439382
v -0.056076 4.293803 0.416106
vt 0.0120 0.7726
vt 0.0181 0.6387
vt 0.0181 0.7726
vt 0.0181 0.6326
vt 0.1520 0.6387
vt 0.1581 0.6387
vt 0.1520 0.7726
vt 0.1520 0.7787
vt 0.1520 0.4987
vt 0.1520 0.6326
vt 0.6147 0.7679
vt 0.6185 0.5487
vt 0.6185 0.7680
vt 0.5726 0.7676
vt 0.5764 0.5484
vt 0.5764 0.7677
vt 0.5841 0.7677
vt 0.5802 0.5484
vt 0.5841 0.5484
vt 0.5955 0.7678
vt 0.5994 0.5486
vt 0.5994 0.7679
vt 0.5879 0.7677
vt 0.5917 0.5485
vt 0.5917 0.7678
vt 0.5649 0.7675
vt 0.5611 0.5482
vt 0.5649 0.5482
vt 0.5879 0.5484
vt 0.5688 0.7675
vt 0.5726 0.5483
vt 0.5573 0.7675
vt 0.5611 0.7675
vt 0.6108 0.5487
vt 0.6147 0.5487
vt 0.6032 0.7679
vt 0.6032 0.5486
vt 0.5955 0.5486
vt 0.5534 0.7674
vt 0.5573 0.5482
vt 0.5688 0.5483
vt 0.5496 0.7674
vt 0.5534 0.5481
vt 0.5802 0.7677
vt 0.6070 0.7679
vt 0.6108 0.7680
vt 0.6070 0.5486
vt 0.0120 0.6387
vt 0.1581 0.7726
vt 0.0181 0.7787
vt 0.0181 0.4987
vt 0.5496 0.5481
vt 0.9333 0.0120
vt 0.9059 0.5242
vt 0.9059 0.0120
vt 0.8373 0.0120
vt 0.8099 0.5242
vt 0.8099 0.0120
vt 0.5257 0.2868
vt 0.0120 0.3157
vt 0.0120 0.2868
vt 0.5257 0.3302
vt 0.0120 0.3591
vt 0.0120 0.3302
vt 0.7003 0.5242
vt 0.6730 0.0120
vt 0.7003 0.0120
vt 0.5257 0.0409
vt 0.0120 0.0698
vt 0.0120 0.0409
vt 0.7825 0.0120
vt 0.6044 0.0120
vt 0.5770 0.5242
vt 0.5770 0.0120
vt 0.5257 0.4170
vt 0.0120 0.4459
vt 0.0120 0.4170
vt 0.5257 0.4459
vt 0.0120 0.4748
vt 0.6318 0.5242
vt 0.6318 0.0120
vt 0.5257 0.0698
vt 0.0120 0.0987
vt 0.5257 0.0120
vt 0.0120 0.0120
vt 0.5257 0.1422
vt 0.0120 0.1711
vt 0.0120 0.1422
vt 0.5257 0.2289
vt 0.0120 0.2579
vt 0.0120 0.2289
vt 0.8785 0.0120
vt 0.8511 0.5242
vt 0.8511 0.0120
vt 0.9607 0.5242
vt 0.9607 0.0120
vt 0.6456 0.5242
vt 0.6456 0.0120
vt 0.9880 0.0120
vt 0.5257 0.2579
vt 0.5257 0.3591
vt 0.0120 0.3881
vt 0.7551 0.5242
vt 0.7551 0.0120
vt 0.5257 0.2000
vt 0.0120 0.2000
vt 0.8785 0.5242
vt 0.5496 0.5242
vt 0.5496 0.0120
vt 0.7277 0.5242
vt 0.7277 0.0120
vt 0.5257 0.3881
vt 0.5257 0.1132
vt 0.0120 0.1132
vt 0.8373 0.5242
vt 0.5257 0.0987
vt 0.5257 0.1711
vt 0.4885 0.5317
vt 0.4957 0.5592
vt 0.4852 0.5339
vt 0.4996 0.5584
vt 0.4957 0.5866
vt 0.4996 0.5873
vt 0.4852 0.6119
vt 0.4885 0.6140
vt 0.4659 0.6312
vt 0.4680 0.6345
vt 0.4406 0.6417
vt 0.4413 0.6456
vt 0.4132 0.6417
vt 0.4124 0.6456
vt 0.4000 0.6377
vt 0.3744 0.6253
vt 0.3772 0.6225
vt 0.3584 0.6012
vt 0.3620 0.5997
vt 0.3567 0.5729
vt 0.3527 0.5729
vt 0.3620 0.5460
vt 0.3584 0.5445
vt 0.3772 0.5232
vt 0.3985 0.5044
vt 0.4000 0.5080
vt 0.4269 0.5027
vt 0.4269 0.4987
vt 0.4537 0.5080
vt 0.4552 0.5044
vt 0.4659 0.5145
vt 0.4680 0.5112
vt 0.1876 0.5447
vt 0.2067 0.5236
vt 0.1915 0.5463
vt 0.2037 0.5206
vt 0.2293 0.5083
vt 0.2277 0.5044
vt 0.2561 0.5030
vt 0.2561 0.4987
vt 0.2828 0.5083
vt 0.2844 0.5044
vt 0.3055 0.5234
vt 0.3085 0.5205
vt 0.3207 0.5462
vt 0.3288 0.5585
vt 0.3247 0.5593
vt 0.3247 0.5867
vt 0.3288 0.5875
vt 0.3143 0.6120
vt 0.3178 0.6143
vt 0.2950 0.6313
vt 0.2974 0.6348
vt 0.2698 0.6418
vt 0.2706 0.6459
vt 0.2425 0.6418
vt 0.2417 0.6460
vt 0.2173 0.6314
vt 0.2150 0.6349
vt 0.1980 0.6121
vt 0.1945 0.6144
vt 0.1916 0.5999
vt 0.1820 0.5731
vt 0.1863 0.5731
vt 0.9333 0.5242
vt 0.5257 0.3157
vt 0.6730 0.5242
vt 0.7825 0.5242
vt 0.6044 0.5242
vt 0.5257 0.4748
vt 0.9880 0.5242
vt 0.3985 0.6413
vt 0.3744 0.5205
vt 0.3246 0.5446
vt 0.1877 0.6015
vn -1.0000 0.0000 0.0000
vn 0.0000 0.0000 -1.0000
vn 1.0000 0.0000 0.0000
vn 0.0000 0.0000 1.0000
vn 0.0000 -1.0000 0.0000
vn 0.0000 1.0000 0.0000
vn -0.9808 0.0000 0.1951
vn 0.9239 0.0000 0.3827
vn 0.9569 0.0000 -0.2903
vn -0.1951 0.0000 -0.9808
vn 0.5556 0.0000 -0.8315
vn 0.0980 0.0000 0.9952
vn 0.8315 0.0000 -0.5556
vn 0.7071 0.0000 0.7071
vn -0.1951 0.0000 0.9808
vn -0.9952 0.0000 -0.0980
vn -0.4714 0.0000 -0.8819
vn 0.1951 0.0000 -0.9808
vn -0.5556 0.0000 0.8315
vn 0.3827 0.0000 0.9239
vn -0.8315 0.0000 0.5556
vn -0.9239 0.0000 -0.3827
vn -0.7071 0.0000 -0.7071
vn 0.6516 0.7537 0.0847
vn 0.6953 -0.5972 0.3999
vn 0.5696 0.7537 0.3276
vn 0.0120 0.7417 0.6706
vn -0.2566 -0.5972 0.7599
vn -0.2102 0.7537 0.6226
vn 0.2000 -0.7805 -0.5922
vn -0.0132 0.6755 -0.7372
vn 0.2387 0.6657 -0.7070
vn -0.1888 -0.7919 -0.5807
vn -0.4552 0.6657 -0.5913
vn -0.2267 0.6755 -0.7016
vn -0.7599 -0.5972 -0.2566
vn -0.4947 0.7537 -0.4325
vn -0.6226 0.7537 -0.2102
vn -0.3117 -0.7805 0.5419
vn -0.0962 0.6657 0.7400
vn -0.3721 0.6657 0.6468
vn -0.4325 0.7537 0.4947
vn 0.0847 0.7537 -0.6517
vn 0.3999 -0.5972 -0.6953
vn 0.3276 0.7537 -0.5696
vn -0.6199 -0.7805 -0.0806
vn -0.7205 0.6657 0.1943
vn -0.7400 0.6657 -0.0962
vn -0.6035 -0.7805 0.1627
vn -0.5913 0.6657 0.4552
vn -0.1709 -0.5878 -0.7907
vn -0.1426 0.7417 -0.6554
vn -0.0806 -0.7805 0.6199
vn 0.1568 0.6755 0.7205
vn -0.4953 -0.7805 0.3813
vn 0.4706 -0.7805 0.4114
vn 0.7070 0.6657 0.2387
vn 0.5618 0.6657 0.4911
vn 0.5602 -0.7805 -0.2774
vn 0.4911 0.6657 -0.5618
vn 0.6687 0.6657 -0.3311
vn 0.4009 0.7537 0.5207
vn 0.2498 -0.5878 0.7695
vn 0.2062 0.7417 0.6383
vn 0.7744 -0.5972 -0.2088
vn 0.6344 0.7537 -0.1711
vn -0.3951 -0.5878 -0.7060
vn -0.3268 0.7417 -0.5858
vn 0.5207 0.7537 -0.4009
vn 0.4114 -0.7805 -0.4706
vn -0.3813 -0.7805 -0.4953
vn -0.6468 0.6657 -0.3721
vn -0.7188 -0.5972 0.3559
vn -0.5889 0.7537 0.2916
vn 0.6237 -0.7805 -0.0419
vn 0.7445 0.6657 -0.0500
vn 0.4893 -0.5972 0.6356
vn 0.6356 -0.5972 -0.4893
vn -0.8003 -0.5972 0.0537
vn -0.6557 0.7537 0.0440
vn -0.5419 -0.7805 -0.3117
vn 0.2985 -0.7919 0.5327
vn 0.3592 0.6755 0.6439
vn 0.0134 -0.5878 0.8089
vn 0.1287 -0.7919 0.5969
vn 0.5922 -0.7805 0.2000
vn 0.7954 -0.5972 0.1034
vn -0.0098 -0.7919 -0.6106
vn -0.5279 -0.5972 0.6039
vn -0.6039 -0.5972 -0.5279
vn 0.1034 -0.5972 -0.7954
s off
f 70/1/1 1/2/1 69/3/1
f 71/4/2 72/5/2 1/2/2
f 73/6/3 74/7/3 72/5/3
f 2/8/4 69/3/4 74/7/4
f 72/5/5 69/3/5 1/2/5
f 71/4/6 2/9/6 73/10/6
f 93/11/7 10/12/7 11/13/7
f 85/14/8 4/15/8 5/16/8
f 81/17/9 82/18/9 80/19/9
f 77/20/10 96/21/10 97/22/10
f 79/23/11 76/24/11 3/25/11
f 7/26/12 88/27/12 6/28/12
f 81/17/13 78/29/13 79/23/13
f 87/30/14 84/31/14 85/14/14
f 91/32/15 88/27/15 89/33/15
f 93/11/16 94/34/16 92/35/16
f 15/36/17 96/21/17 14/37/17
f 3/25/18 75/38/18 77/20/18
f 9/39/19 90/40/19 91/32/19
f 7/26/20 86/41/20 87/30/20
f 11/42/21 8/43/21 9/39/21
f 5/16/3 82/18/3 83/44/3
f 13/45/22 94/34/22 95/46/22
f 15/36/23 12/47/23 13/45/23
f 70/1/1 71/48/1 1/2/1
f 71/4/2 73/10/2 72/5/2
f 73/6/3 2/49/3 74/7/3
f 2/8/4 70/50/4 69/3/4
f 72/5/5 74/7/5 69/3/5
f 71/4/6 70/51/6 2/9/6
f 93/11/7 92/35/7 10/12/7
f 85/14/8 84/31/8 4/15/8
f 81/17/9 83/44/9 82/18/9
f 77/20/10 75/38/10 96/21/10
f 79/23/11 78/29/11 76/24/11
f 7/26/12 89/33/12 88/27/12
f 81/17/13 80/19/13 78/29/13
f 87/30/14 86/41/14 84/31/14
f 91/32/15 90/40/15 88/27/15
f 93/11/16 95/46/16 94/34/16
f 15/36/17 97/22/17 96/21/17
f 3/25/18 76/24/18 75/38/18
f 9/39/19 8/43/19 90/40/19
f 7/26/20 6/28/20 86/41/20
f 11/42/21 10/52/21 8/43/21
f 5/16/3 4/15/3 82/18/3
f 13/45/22 12/47/22 94/34/22
f 15/36/23 14/37/23 12/47/23
s 1
f 101/53/24 28/54/25 39/55/26
f 38/56/27 24/57/28 105/58/29
f 53/59/30 103/60/31 54/61/32
f 50/62/33 49/63/34 51/64/35
f 20/65/36 109/66/37 35/67/38
f 67/68/39 111/69/40 68/70/41
f 24/57/28 37/71/42 105/58/29
f 112/72/43 32/73/44 99/74/45
f 44/75/46 43/76/47 45/77/48
f 42/78/49 41/79/50 43/76/47
f 17/80/51 112/72/43 33/81/52
f 66/82/53 110/83/54 111/69/40
f 40/84/55 68/70/41 41/85/50
f 61/86/56 108/87/57 62/88/58
f 57/89/59 56/90/60 58/91/61
f 102/92/62 26/93/63 104/94/64
f 30/95/65 101/53/24 100/96/66
f 109/66/37 18/97/67 34/98/68
f 34/98/68 17/80/51 33/81/52
f 98/99/69 30/95/65 100/96/66
f 103/60/31 50/62/33 51/64/35
f 55/100/70 54/61/32 56/90/60
f 48/101/71 47/102/72 49/63/34
f 37/71/42 22/103/73 106/104/74
f 59/105/75 58/91/61 107/106/76
f 39/55/26 27/107/77 102/92/62
f 99/74/45 31/108/78 98/109/69
f 106/104/74 21/110/79 36/111/80
f 46/112/81 45/77/48 47/102/72
f 36/111/80 20/65/36 35/67/38
f 63/113/82 62/88/58 64/114/83
f 104/94/64 25/115/84 38/56/27
f 65/116/85 64/114/83 110/83/54
f 60/117/86 107/106/76 108/87/57
f 62/118/58 35/119/38 109/120/37
f 108/121/57 36/122/80 35/119/38
f 107/123/76 106/124/74 36/122/80
f 58/125/61 37/126/42 106/124/74
f 56/127/60 105/128/29 37/126/42
f 54/129/32 38/130/27 105/128/29
f 103/131/31 104/132/64 38/130/27
f 104/132/64 49/133/34 102/134/62
f 102/134/62 47/135/72 39/136/26
f 47/135/72 101/137/24 39/136/26
f 45/138/48 100/139/66 101/137/24
f 43/140/47 98/141/69 100/139/66
f 98/141/69 68/142/41 99/143/45
f 68/142/41 112/144/43 99/143/45
f 111/145/40 33/146/52 112/144/43
f 110/147/54 34/148/68 33/146/52
f 64/149/83 109/120/37 34/148/68
f 67/150/39 31/151/78 32/152/44
f 40/153/55 30/154/65 31/151/78
f 42/155/49 29/156/87 30/154/65
f 44/157/46 28/158/25 29/156/87
f 46/159/81 27/160/77 28/158/25
f 48/161/71 26/162/63 27/160/77
f 26/162/63 52/163/88 25/164/84
f 52/163/88 24/165/28 25/164/84
f 53/166/30 23/167/89 24/165/28
f 55/168/70 22/169/73 23/167/89
f 57/170/59 21/171/79 22/169/73
f 59/172/75 20/173/36 21/171/79
f 60/174/86 19/175/90 20/173/36
f 61/176/56 18/177/67 19/175/90
f 63/178/82 17/179/51 18/177/67
f 17/179/51 66/180/53 16/181/91
f 16/181/91 67/150/39 32/152/44
f 101/53/24 29/182/87 28/54/25
f 38/56/27 25/115/84 24/57/28
f 53/59/30 52/183/88 103/60/31
f 50/62/33 48/101/71 49/63/34
f 20/65/36 19/184/90 109/66/37
f 67/68/39 66/82/53 111/69/40
f 24/57/28 23/185/89 37/71/42
f 112/72/43 16/186/91 32/73/44
f 44/75/46 42/78/49 43/76/47
f 42/78/49 40/187/55 41/79/50
f 17/80/51 16/186/91 112/72/43
f 66/82/53 65/116/85 110/83/54
f 40/84/55 67/68/39 68/70/41
f 61/86/56 60/117/86 108/87/57
f 57/89/59 55/100/70 56/90/60
f 102/92/62 27/107/77 26/93/63
f 30/95/65 29/182/87 101/53/24
f 109/66/37 19/184/90 18/97/67
f 34/98/68 18/97/67 17/80/51
f 98/99/69 31/188/78 30/95/65
f 103/60/31 52/183/88 50/62/33
f 55/100/70 53/59/30 54/61/32
f 48/101/71 46/112/81 47/102/72
f 37/71/42 23/185/89 22/103/73
f 59/105/75 57/89/59 58/91/61
f 39/55/26 28/54/25 27/107/77
f 99/74/45 32/73/44 31/108/78
f 106/104/74 22/103/73 21/110/79
f 46/112/81 44/75/46 45/77/48
f 36/111/80 21/110/79 20/65/36
f 63/113/82 61/86/56 62/88/58
f 104/94/64 26/93/63 25/115/84
f 65/116/85 63/113/82 64/114/83
f 60/117/86 59/105/75 107/106/76
f 62/118/58 108/121/57 35/119/38
f 108/121/57 107/123/76 36/122/80
f 107/123/76 58/125/61 106/124/74
f 58/125/61 56/127/60 37/126/42
f 56/127/60 54/129/32 105/128/29
f 54/129/32 103/131/31 38/130/27
f 103/131/31 51/189/35 104/132/64
f 104/132/64 51/189/35 49/133/34
f 102/134/62 49/133/34 47/135/72
f 47/135/72 45/138/48 101/137/24
f 45/138/48 43/140/47 100/139/66
f 43/140/47 41/190/50 98/141/69
f 98/141/69 41/190/50 68/142/41
f 68/142/41 111/145/40 112/144/43
f 111/145/40 110/147/54 33/146/52
f 110/147/54 64/149/83 34/148/68
f 64/149/83 62/118/58 109/120/37
f 67/150/39 40/153/55 31/151/78
f 40/153/55 42/155/49 30/154/65
f 42/155/49 44/157/46 29/156/87
f 44/157/46 46/159/81 28/158/25
f 46/159/81 48/161/71 27/160/77
f 48/161/71 50/191/33 26/162/63
f 26/162/63 50/191/33 52/163/88
f 52/163/88 53/166/30 24/165/28
f 53/166/30 55/168/70 23/167/89
f 55/168/70 57/170/59 22/169/73
f 57/170/59 59/172/75 21/171/79
f 59/172/75 60/174/86 20/173/36
f 60/174/86 61/176/56 19/175/90
f 61/176/56 63/178/82 18/177/67
f 63/178/82 65/192/85 17/179/51
f 17/179/51 65/192/85 66/180/53
f 16/181/91 66/180/53 67/150/39
