# Blender v2.77 (sub 0) OBJ File: 'NES magazine.blend'
# www.blender.org
v -0.152369 -0.196908 0.279701
v 0.240985 -0.262556 0.279701
v -0.152369 -0.197153 -0.278322
v 0.233442 -0.260496 -0.278322
v -0.152369 -0.197125 -0.166718
v -0.152369 -0.196844 -0.055113
v -0.153101 -0.196498 0.056492
v -0.152369 -0.196322 0.168096
v -0.065336 -0.196998 0.279701
v 0.020993 -0.197323 0.279701
v 0.102503 -0.197905 0.279701
v 0.178625 -0.215123 0.279701
v 0.236068 -0.262869 0.168096
v 0.234236 -0.263868 0.056492
v 0.234073 -0.258729 -0.055113
v 0.233557 -0.254511 -0.166718
v 0.173591 -0.197088 -0.278322
v 0.101783 -0.193183 -0.278322
v 0.020638 -0.197115 -0.278322
v -0.065520 -0.196844 -0.278322
v -0.065373 -0.196728 0.168096
v -0.066201 -0.196598 0.056492
v -0.065446 -0.196817 -0.055113
v -0.065483 -0.197016 -0.166718
v 0.020922 -0.196093 0.168096
v 0.020167 -0.195869 0.056492
v 0.020780 -0.196710 -0.055113
v 0.020709 -0.197724 -0.166718
v 0.102172 -0.195673 0.168096
v 0.101664 -0.194616 0.056492
v 0.101977 -0.193935 -0.055113
v 0.101880 -0.194368 -0.166718
v 0.174812 -0.209516 0.168096
v 0.173949 -0.205482 0.056492
v 0.173836 -0.204502 -0.055113
v 0.173701 -0.202330 -0.166718
v -0.152369 -0.196030 0.279701
v 0.240985 -0.252955 0.279701
v -0.152369 -0.196275 -0.278322
v 0.233442 -0.248470 -0.278322
v -0.152369 -0.196247 -0.166718
v -0.152369 -0.195966 -0.055113
v -0.153101 -0.195620 0.056492
v -0.152369 -0.195444 0.168096
v -0.065336 -0.193467 0.279701
v 0.020993 -0.194844 0.279701
v 0.102503 -0.194162 0.279701
v 0.178625 -0.211294 0.279701
v 0.236068 -0.259088 0.168096
v 0.234236 -0.261389 0.056492
v 0.234073 -0.256250 -0.055113
v 0.233557 -0.252032 -0.166718
v 0.173591 -0.193259 -0.278322
v 0.101783 -0.189439 -0.278322
v 0.020638 -0.194636 -0.278322
v -0.065520 -0.193314 -0.278322
v -0.065373 -0.193197 0.168096
v -0.066201 -0.193067 0.056492
v -0.065446 -0.193286 -0.055113
v -0.065483 -0.193485 -0.166718
v 0.020922 -0.193614 0.168096
v 0.020167 -0.193390 0.056492
v 0.020780 -0.194231 -0.055113
v 0.020709 -0.195245 -0.166718
v 0.102172 -0.191930 0.168096
v 0.101664 -0.190873 0.056492
v 0.101977 -0.190191 -0.055113
v 0.101880 -0.190625 -0.166718
v 0.174812 -0.205686 0.168096
v 0.173949 -0.201653 0.056492
v 0.173836 -0.200672 -0.055113
v 0.173701 -0.198500 -0.166718
v -0.152369 -0.194507 0.279701
v 0.240985 -0.235650 0.279701
v -0.152369 -0.194752 -0.278322
v 0.233442 -0.244544 -0.278322
v -0.152369 -0.194724 -0.166718
v -0.152369 -0.194443 -0.055113
v -0.153101 -0.194097 0.056492
v -0.152369 -0.193921 0.168096
v -0.065336 -0.189541 0.279701
v 0.020993 -0.190918 0.279701
v 0.102503 -0.190236 0.279701
v 0.178625 -0.207368 0.279701
v 0.236068 -0.248015 0.168096
v 0.234236 -0.252503 0.056492
v 0.234073 -0.252324 -0.055113
v 0.233557 -0.248106 -0.166718
v 0.173591 -0.189333 -0.278322
v 0.101783 -0.185514 -0.278322
v 0.020638 -0.190710 -0.278322
v -0.065520 -0.189388 -0.278322
v -0.065373 -0.189271 0.168096
v -0.066201 -0.189141 0.056492
v -0.065446 -0.189360 -0.055113
v -0.065483 -0.189560 -0.166718
v 0.020922 -0.189688 0.168096
v 0.020167 -0.189464 0.056492
v 0.020780 -0.190305 -0.055113
v 0.020709 -0.191319 -0.166718
v 0.102172 -0.188004 0.168096
v 0.101664 -0.186947 0.056492
v 0.101977 -0.186266 -0.055113
v 0.101880 -0.186699 -0.166718
v 0.174812 -0.201760 0.168096
v 0.173949 -0.197727 0.056492
v 0.173836 -0.196746 -0.055113
v 0.173701 -0.194575 -0.166718
v -0.152369 -0.192925 0.279701
v 0.240985 -0.221899 0.279701
v -0.152369 -0.193170 -0.278322
v 0.233442 -0.231404 -0.278322
v -0.152369 -0.193142 -0.166718
v -0.152369 -0.192861 -0.055113
v -0.153101 -0.192515 0.056492
v -0.152369 -0.192339 0.168096
v -0.065336 -0.186804 0.279701
v 0.020993 -0.186956 0.279701
v 0.102503 -0.186274 0.279701
v 0.178625 -0.203405 0.279701
v 0.236068 -0.237890 0.168096
v 0.234236 -0.248540 0.056492
v 0.234073 -0.248361 -0.055113
v 0.233557 -0.242060 -0.166718
v 0.173591 -0.185370 -0.278322
v 0.101783 -0.181551 -0.278322
v 0.020638 -0.186748 -0.278322
v -0.065520 -0.186651 -0.278322
v -0.065373 -0.186534 0.168096
v -0.066201 -0.186404 0.056492
v -0.065446 -0.186623 -0.055113
v -0.065483 -0.186822 -0.166718
v 0.020922 -0.185726 0.168096
v 0.020167 -0.183271 0.056492
v 0.020780 -0.186342 -0.055113
v 0.020709 -0.187356 -0.166718
v 0.102172 -0.184041 0.168096
v 0.101664 -0.181498 0.056492
v 0.101977 -0.182303 -0.055113
v 0.101880 -0.182737 -0.166718
v 0.174812 -0.197798 0.168096
v 0.173949 -0.193764 0.056492
v 0.173836 -0.192784 -0.055113
v 0.173701 -0.190612 -0.166718
vt 0.4932 0.7348
vt 0.4163 0.8755
vt 0.4163 0.7348
vt 0.0025 0.7348
vt 0.1120 0.8755
vt 0.0025 0.8755
vt 0.1120 0.7348
vt 0.2206 0.8755
vt 0.2206 0.7348
vt 0.3232 0.8755
vt 0.3232 0.7348
vt 0.0025 0.1723
vt 0.1120 0.3129
vt 0.0025 0.3129
vt 0.1120 0.4536
vt 0.0025 0.4536
vt 0.0025 0.5942
vt 0.1120 0.1723
vt 0.2206 0.3129
vt 0.2206 0.4536
vt 0.1120 0.5942
vt 0.2206 0.1723
vt 0.3232 0.3129
vt 0.3232 0.4536
vt 0.2206 0.5942
vt 0.3232 0.1723
vt 0.4163 0.3129
vt 0.4163 0.4536
vt 0.4163 0.5942
vt 0.3232 0.5942
vt 0.4163 0.1723
vt 0.4932 0.3129
vt 0.4932 0.4536
vt 0.4932 0.5942
vt 0.4163 0.7348
vt 0.4932 0.8754
vt 0.4163 0.8754
vt 0.0025 0.7348
vt 0.1120 0.8754
vt 0.0025 0.8754
vt 0.1120 0.7348
vt 0.2206 0.8754
vt 0.2206 0.7348
vt 0.3232 0.8754
vt 0.3232 0.7348
vt 0.0025 0.1724
vt 0.1120 0.3130
vt 0.0025 0.3130
vt 0.1120 0.4536
vt 0.0025 0.4536
vt 0.0025 0.5942
vt 0.1120 0.1724
vt 0.2206 0.3130
vt 0.2206 0.4536
vt 0.1120 0.5942
vt 0.2206 0.1724
vt 0.3232 0.3130
vt 0.3232 0.4536
vt 0.2206 0.5942
vt 0.3232 0.1724
vt 0.4163 0.3130
vt 0.4163 0.4536
vt 0.4163 0.5942
vt 0.3232 0.5942
vt 0.4163 0.1724
vt 0.4932 0.3130
vt 0.4932 0.4536
vt 0.4932 0.5942
vt 0.4932 0.7348
vt 0.4163 0.7342
vt 0.4932 0.8745
vt 0.4163 0.8745
vt 0.0025 0.7342
vt 0.1120 0.8745
vt 0.0025 0.8745
vt 0.1120 0.7342
vt 0.2206 0.8745
vt 0.2206 0.7342
vt 0.3232 0.8745
vt 0.3232 0.7342
vt 0.1120 0.1733
vt 0.0025 0.3135
vt 0.0025 0.1733
vt 0.1120 0.4538
vt 0.0025 0.4538
vt 0.0025 0.5940
vt 0.2206 0.3135
vt 0.1120 0.3135
vt 0.2206 0.4538
vt 0.1120 0.5940
vt 0.2206 0.1733
vt 0.3232 0.3135
vt 0.3232 0.4538
vt 0.2206 0.5940
vt 0.3232 0.1733
vt 0.4163 0.3135
vt 0.4163 0.4538
vt 0.4163 0.5940
vt 0.3232 0.5940
vt 0.4163 0.1733
vt 0.4932 0.3135
vt 0.4932 0.4538
vt 0.4932 0.5940
vt 0.4932 0.7342
vt 0.9212 0.7337
vt 0.9978 0.8737
vt 0.9212 0.8737
vt 0.5089 0.7337
vt 0.6179 0.8737
vt 0.5089 0.8737
vt 0.6179 0.7337
vt 0.7262 0.8737
vt 0.7262 0.7337
vt 0.8284 0.8737
vt 0.8284 0.7337
vt 0.6179 0.1740
vt 0.5089 0.3139
vt 0.5089 0.1740
vt 0.6179 0.4539
vt 0.5089 0.4539
vt 0.5089 0.5938
vt 0.7262 0.3139
vt 0.6179 0.3139
vt 0.7262 0.4539
vt 0.6179 0.5938
vt 0.7262 0.1740
vt 0.8284 0.3139
vt 0.8284 0.4539
vt 0.7262 0.5938
vt 0.8284 0.1740
vt 0.9212 0.3139
vt 0.9212 0.4539
vt 0.8284 0.5938
vt 0.9212 0.1740
vt 0.9978 0.3139
vt 0.9978 0.5938
vt 0.9212 0.5938
vt 0.9978 0.7337
vt 0.4932 0.8755
vt 0.4932 0.1723
vt 0.4932 0.1724
vt 0.4932 0.1733
vt 0.9978 0.1740
vt 0.9978 0.4539
vn 0.6747 0.7380 0.0113
vn 0.4086 0.9127 0.0080
vn 0.4058 0.9136 0.0261
vn -0.0017 1.0000 -0.0009
vn 0.0003 1.0000 0.0010
vn -0.0035 1.0000 -0.0002
vn 0.0030 1.0000 0.0003
vn -0.0215 0.9998 0.0043
vn -0.0183 0.9998 0.0000
vn 0.0043 0.9999 0.0091
vn 0.0301 0.9995 0.0083
vn 0.0025 1.0000 0.0036
vn -0.0018 1.0000 0.0023
vn 0.0039 1.0000 0.0026
vn -0.0034 1.0000 -0.0009
vn 0.0011 1.0000 -0.0023
vn -0.0002 1.0000 -0.0023
vn 0.0001 1.0000 0.0049
vn -0.0061 0.9999 0.0064
vn -0.0110 0.9999 -0.0020
vn -0.0005 1.0000 -0.0038
vn 0.0030 0.9999 0.0137
vn 0.0891 0.9958 0.0170
vn 0.0655 0.9978 0.0048
vn -0.0165 0.9998 -0.0055
vn 0.1085 0.9937 0.0267
vn 0.4429 0.8964 0.0194
vn 0.4416 0.8970 0.0180
vn 0.4246 0.9052 0.0138
vn 0.0527 0.9986 0.0048
vn 0.4413 0.8972 0.0146
vn 0.6469 0.7625 -0.0096
vn 0.6878 0.7256 0.0185
vn 0.6745 0.7379 0.0207
vn 0.4125 0.9106 0.0242
vn 0.6732 0.7388 0.0296
vn 0.3941 0.9186 0.0304
vn -0.0322 0.9995 -0.0009
vn -0.0089 0.9999 0.0010
vn -0.0341 0.9994 -0.0002
vn -0.0061 1.0000 0.0003
vn -0.0232 0.9997 0.0043
vn -0.0199 0.9998 0.0000
vn -0.0040 0.9999 0.0091
vn 0.0218 0.9997 0.0083
vn -0.0279 0.9996 0.0036
vn -0.0109 0.9999 0.0023
vn -0.0266 0.9996 0.0027
vn -0.0127 0.9999 -0.0009
vn -0.0294 0.9995 -0.0023
vn -0.0307 0.9995 -0.0023
vn -0.0091 0.9999 0.0049
vn -0.0078 0.9999 0.0064
vn -0.0126 0.9999 -0.0020
vn -0.0096 0.9999 -0.0038
vn 0.0013 0.9999 0.0137
vn 0.0808 0.9966 0.0171
vn 0.0572 0.9984 0.0049
vn -0.0183 0.9998 -0.0055
vn 0.1003 0.9946 0.0268
vn 0.4436 0.8960 0.0181
vn 0.4462 0.8947 0.0179
vn 0.4297 0.9029 0.0137
vn 0.0444 0.9990 0.0048
vn 0.4237 0.9058 0.0014
vn 0.6387 0.7692 -0.0215
vn 0.6945 0.7193 0.0164
vn 0.6834 0.7297 0.0204
vn 0.6688 0.7431 0.0205
vn -0.0598 0.9982 -0.0009
vn -0.0227 0.9997 0.0010
vn -0.0616 0.9981 -0.0002
vn -0.0199 0.9998 0.0003
vn -0.0221 0.9997 0.0057
vn -0.0549 0.9985 0.0020
vn -0.0569 0.9984 0.0052
vn -0.0265 0.9996 -0.0009
vn -0.0569 0.9984 -0.0023
vn -0.0583 0.9983 -0.0024
vn -0.0243 0.9997 0.0020
vn -0.0234 0.9997 -0.0038
vn 0.4145 0.9099 0.0165
vn 0.4309 0.9023 0.0132
vn 0.3615 0.9322 -0.0145
vn 0.5714 0.8199 -0.0356
vn 0.6595 0.7517 -0.0013
vn 0.6769 0.7359 0.0140
vn 0.3971 0.9172 0.0323
vn 0.6254 0.7786 0.0502
vn 0.3534 0.9349 0.0314
vn -0.0730 0.9973 -0.0009
vn -0.0364 0.9993 0.0010
vn -0.0748 0.9972 -0.0002
vn -0.0336 0.9994 0.0003
vn -0.0303 0.9995 0.0043
vn -0.0270 0.9996 0.0000
vn -0.0358 0.9993 0.0057
vn -0.0681 0.9977 0.0020
vn -0.0701 0.9975 0.0052
vn -0.0530 0.9986 -0.0009
vn -0.0701 0.9975 -0.0023
vn -0.0715 0.9974 -0.0025
vn -0.0140 0.9998 0.0154
vn -0.0407 0.9991 0.0050
vn -0.0227 0.9997 -0.0020
vn -0.0398 0.9992 -0.0068
vn -0.0058 0.9999 0.0137
vn 0.0826 0.9963 0.0216
vn 0.0701 0.9975 0.0045
vn -0.0244 0.9996 -0.0145
vn 0.3753 0.9265 0.0283
vn 0.4234 0.9059 -0.0034
vn 0.0465 0.9989 0.0006
vn 0.3053 0.9519 -0.0250
vn 0.5347 0.8446 -0.0258
vn 0.6768 0.7358 0.0207
vn 0.4277 0.9038 0.0163
vn 0.6566 0.7527 0.0469
vn 0.7267 0.6859 -0.0375
vn 0.6052 0.7956 -0.0289
vn 0.5541 0.8295 -0.0700
vn 0.4101 0.9043 -0.1183
vn 0.2812 0.9481 -0.1482
vn 0.6719 0.7395 -0.0399
s 1
f 16/1/1 17/2/2 36/3/3
f 5/4/4 20/5/5 3/6/6
f 24/7/7 19/8/8 20/5/5
f 28/9/9 18/10/10 19/8/8
f 32/11/11 17/2/2 18/10/10
f 1/12/12 21/13/13 8/14/14
f 8/14/14 22/15/15 7/16/16
f 22/15/15 6/17/17 7/16/16
f 6/17/17 24/7/7 5/4/4
f 9/18/18 25/19/19 21/13/13
f 21/13/13 26/20/20 22/15/15
f 26/20/20 23/21/21 22/15/15
f 23/21/21 28/9/9 24/7/7
f 10/22/22 29/23/23 25/19/19
f 25/19/19 30/24/24 26/20/20
f 30/24/24 27/25/25 26/20/20
f 27/25/25 32/11/11 28/9/9
f 11/26/26 33/27/27 29/23/23
f 29/23/23 34/28/28 30/24/24
f 30/24/24 35/29/29 31/30/30
f 31/30/30 36/3/3 32/11/11
f 12/31/31 13/32/32 33/27/27
f 33/27/27 14/33/33 34/28/28
f 34/28/28 15/34/34 35/29/29
f 35/29/29 16/1/1 36/3/3
f 72/35/35 40/36/36 53/37/37
f 41/38/38 56/39/39 39/40/40
f 60/41/41 55/42/42 56/39/39
f 64/43/43 54/44/44 55/42/42
f 68/45/45 53/37/37 54/44/44
f 37/46/46 57/47/47 44/48/48
f 44/48/48 58/49/49 43/50/50
f 58/49/49 42/51/51 43/50/50
f 42/51/51 60/41/41 41/38/38
f 45/52/52 61/53/53 57/47/47
f 57/47/47 62/54/54 58/49/49
f 62/54/54 59/55/55 58/49/49
f 59/55/55 64/43/43 60/41/41
f 46/56/56 65/57/57 61/53/53
f 61/53/53 66/58/58 62/54/54
f 66/58/58 63/59/59 62/54/54
f 63/59/59 68/45/45 64/43/43
f 47/60/60 69/61/61 65/57/57
f 65/57/57 70/62/62 66/58/58
f 66/58/58 71/63/63 67/64/64
f 67/64/64 72/35/35 68/45/45
f 48/65/65 49/66/66 69/61/61
f 69/61/61 50/67/67 70/62/62
f 70/62/62 51/68/68 71/63/63
f 71/63/63 52/69/69 72/35/35
f 108/70/35 76/71/36 89/72/37
f 77/73/70 92/74/71 75/75/72
f 96/76/73 91/77/42 92/74/71
f 100/78/43 90/79/44 91/77/42
f 104/80/45 89/72/37 90/79/44
f 81/81/74 80/82/75 73/83/76
f 80/82/75 94/84/77 79/85/78
f 94/84/77 78/86/79 79/85/78
f 78/86/79 96/76/73 77/73/70
f 81/81/74 97/87/53 93/88/80
f 93/88/80 98/89/54 94/84/77
f 98/89/54 95/90/81 94/84/77
f 95/90/81 100/78/43 96/76/73
f 82/91/56 101/92/57 97/87/53
f 97/87/53 102/93/58 98/89/54
f 102/93/58 99/94/59 98/89/54
f 99/94/59 104/80/45 100/78/43
f 83/95/60 105/96/82 101/92/57
f 101/92/57 106/97/83 102/93/58
f 102/93/58 107/98/63 103/99/64
f 103/99/64 108/70/35 104/80/45
f 84/100/84 85/101/85 105/96/82
f 105/96/82 86/102/86 106/97/83
f 106/97/83 87/103/87 107/98/63
f 107/98/63 88/104/69 108/70/35
f 144/105/88 112/106/89 125/107/90
f 113/108/91 128/109/92 111/110/93
f 132/111/94 127/112/95 128/109/92
f 136/113/96 126/114/44 127/112/95
f 140/115/45 125/107/90 126/114/44
f 117/116/97 116/117/98 109/118/99
f 116/117/98 130/119/100 115/120/101
f 130/119/100 114/121/102 115/120/101
f 114/121/102 132/111/94 113/108/91
f 117/116/97 133/122/103 129/123/104
f 129/123/104 134/124/105 130/119/100
f 134/124/105 131/125/106 130/119/100
f 131/125/106 136/113/96 132/111/94
f 118/126/107 137/127/108 133/122/103
f 133/122/103 138/128/109 134/124/105
f 138/128/109 135/129/110 134/124/105
f 135/129/110 140/115/45 136/113/96
f 119/130/60 141/131/111 137/127/108
f 137/127/108 142/132/112 138/128/109
f 142/132/112 139/133/113 138/128/109
f 139/133/113 144/105/88 140/115/45
f 120/134/114 121/135/115 141/131/111
f 121/135/115 142/132/112 141/131/111
f 142/132/112 123/136/116 143/137/117
f 143/137/117 124/138/118 144/105/88
f 16/1/1 4/139/119 17/2/2
f 5/4/4 24/7/7 20/5/5
f 24/7/7 28/9/9 19/8/8
f 28/9/9 32/11/11 18/10/10
f 32/11/11 36/3/3 17/2/2
f 1/12/12 9/18/18 21/13/13
f 8/14/14 21/13/13 22/15/15
f 22/15/15 23/21/21 6/17/17
f 6/17/17 23/21/21 24/7/7
f 9/18/18 10/22/22 25/19/19
f 21/13/13 25/19/19 26/20/20
f 26/20/20 27/25/25 23/21/21
f 23/21/21 27/25/25 28/9/9
f 10/22/22 11/26/26 29/23/23
f 25/19/19 29/23/23 30/24/24
f 30/24/24 31/30/30 27/25/25
f 27/25/25 31/30/30 32/11/11
f 11/26/26 12/31/31 33/27/27
f 29/23/23 33/27/27 34/28/28
f 30/24/24 34/28/28 35/29/29
f 31/30/30 35/29/29 36/3/3
f 12/31/31 2/140/120 13/32/32
f 33/27/27 13/32/32 14/33/33
f 34/28/28 14/33/33 15/34/34
f 35/29/29 15/34/34 16/1/1
f 72/35/35 52/69/69 40/36/36
f 41/38/38 60/41/41 56/39/39
f 60/41/41 64/43/43 55/42/42
f 64/43/43 68/45/45 54/44/44
f 68/45/45 72/35/35 53/37/37
f 37/46/46 45/52/52 57/47/47
f 44/48/48 57/47/47 58/49/49
f 58/49/49 59/55/55 42/51/51
f 42/51/51 59/55/55 60/41/41
f 45/52/52 46/56/56 61/53/53
f 57/47/47 61/53/53 62/54/54
f 62/54/54 63/59/59 59/55/55
f 59/55/55 63/59/59 64/43/43
f 46/56/56 47/60/60 65/57/57
f 61/53/53 65/57/57 66/58/58
f 66/58/58 67/64/64 63/59/59
f 63/59/59 67/64/64 68/45/45
f 47/60/60 48/65/65 69/61/61
f 65/57/57 69/61/61 70/62/62
f 66/58/58 70/62/62 71/63/63
f 67/64/64 71/63/63 72/35/35
f 48/65/65 38/141/121 49/66/66
f 69/61/61 49/66/66 50/67/67
f 70/62/62 50/67/67 51/68/68
f 71/63/63 51/68/68 52/69/69
f 108/70/35 88/104/69 76/71/36
f 77/73/70 96/76/73 92/74/71
f 96/76/73 100/78/43 91/77/42
f 100/78/43 104/80/45 90/79/44
f 104/80/45 108/70/35 89/72/37
f 81/81/74 93/88/80 80/82/75
f 80/82/75 93/88/80 94/84/77
f 94/84/77 95/90/81 78/86/79
f 78/86/79 95/90/81 96/76/73
f 81/81/74 82/91/56 97/87/53
f 93/88/80 97/87/53 98/89/54
f 98/89/54 99/94/59 95/90/81
f 95/90/81 99/94/59 100/78/43
f 82/91/56 83/95/60 101/92/57
f 97/87/53 101/92/57 102/93/58
f 102/93/58 103/99/64 99/94/59
f 99/94/59 103/99/64 104/80/45
f 83/95/60 84/100/84 105/96/82
f 101/92/57 105/96/82 106/97/83
f 102/93/58 106/97/83 107/98/63
f 103/99/64 107/98/63 108/70/35
f 84/100/84 74/142/122 85/101/85
f 105/96/82 85/101/85 86/102/86
f 106/97/83 86/102/86 87/103/87
f 107/98/63 87/103/87 88/104/69
f 144/105/88 124/138/118 112/106/89
f 113/108/91 132/111/94 128/109/92
f 132/111/94 136/113/96 127/112/95
f 136/113/96 140/115/45 126/114/44
f 140/115/45 144/105/88 125/107/90
f 117/116/97 129/123/104 116/117/98
f 116/117/98 129/123/104 130/119/100
f 130/119/100 131/125/106 114/121/102
f 114/121/102 131/125/106 132/111/94
f 117/116/97 118/126/107 133/122/103
f 129/123/104 133/122/103 134/124/105
f 134/124/105 135/129/110 131/125/106
f 131/125/106 135/129/110 136/113/96
f 118/126/107 119/130/60 137/127/108
f 133/122/103 137/127/108 138/128/109
f 138/128/109 139/133/113 135/129/110
f 135/129/110 139/133/113 140/115/45
f 119/130/60 120/134/114 141/131/111
f 137/127/108 141/131/111 142/132/112
f 142/132/112 143/137/117 139/133/113
f 139/133/113 143/137/117 144/105/88
f 120/134/114 110/143/123 121/135/115
f 121/135/115 122/144/124 142/132/112
f 142/132/112 122/144/124 123/136/116
f 143/137/117 123/136/116 124/138/118
