# Blender v2.77 (sub 0) OBJ File: 'Room Desk.blend'
# www.blender.org
v -3.742497 -0.061636 0.876669
v -3.742497 0.061636 0.876669
v -3.742497 -0.061636 -0.876669
v -3.742497 0.061636 -0.876669
v 3.742497 -0.061636 0.876669
v 3.742497 0.061636 0.876669
v 3.742497 -0.061636 -0.876669
v 3.742497 0.061636 -0.876669
vt 0.1659 0.1682
vt 0.0001 0.1564
vt 0.1659 0.1566
vt 0.9999 0.1684
vt 0.8341 0.1566
vt 0.9999 0.1567
vt 0.8341 0.1682
vt 0.8341 0.0001
vt 0.1659 0.0001
vt 0.1659 0.3247
vt 0.8341 0.3247
vt 0.0001 0.1681
vn -1.0000 0.0000 0.0000
vn 1.0000 0.0000 0.0000
vn 0.0000 0.0000 1.0000
vn 0.0000 -1.0000 0.0000
vn 0.0000 1.0000 0.0000
s off
f 2/1/1 3/2/1 1/3/1
f 8/4/2 5/5/2 7/6/2
f 6/7/3 1/3/3 5/5/3
f 7/8/4 1/3/4 3/9/4
f 4/10/5 6/7/5 8/11/5
f 2/1/1 4/12/1 3/2/1
f 8/4/2 6/7/2 5/5/2
f 6/7/3 2/1/3 1/3/3
f 7/8/4 5/5/4 1/3/4
f 4/10/5 2/1/5 6/7/5
