# Blender v2.78 (sub 0) OBJ File: ''
# www.blender.org
mtllib Simplest Mesh.mtl
v 0.000000 -0.500000 0.000000
v 0.000000 -0.500000 -1.000000
v 1.000000 -0.500000 0.000000
v 0.000000 0.500000 0.000000
v -0.000000 -0.500000 1.000000
v -1.000000 -0.500000 -0.000000
vt 0.7500 0.2500
vt 0.7500 0.4900
vt 0.9900 0.2500
vt 0.2500 0.4900
vt 0.2500 0.2500
vt 0.4900 0.2500
vt 0.7500 0.0100
vt 0.2500 0.0100
vt 0.5100 0.2500
vt 0.0100 0.2500
vn 0.0000 -1.0000 0.0000
vn 0.5774 0.5774 -0.5774
vn 0.5774 0.5774 0.5774
vn -0.5774 0.5774 0.5774
vn -0.5774 0.5774 -0.5774
usemtl None
s off
f 1/1/1 2/2/1 3/3/1
f 2/4/2 4/5/2 3/6/2
f 1/1/1 3/3/1 5/7/1
f 3/6/3 4/5/3 5/8/3
f 1/1/1 5/7/1 6/9/1
f 5/8/4 4/5/4 6/10/4
f 1/1/1 6/9/1 2/2/1
f 6/10/5 4/5/5 2/4/5
