# Blender v2.77 (sub 0) OBJ File: 'Small Table.blend'
# www.blender.org
v 0.654870 0.116259 0.654870
v 0.654870 0.537620 0.654870
v -0.654870 0.116259 0.654870
v -0.654870 0.537620 0.654870
v 0.654870 0.116259 -0.654870
v 0.654870 0.537620 -0.654870
v -0.654870 0.116259 -0.654870
v -0.654870 0.537620 -0.654870
v 0.506465 0.484280 0.654870
v 0.577512 0.537620 0.654870
v 0.506465 0.484280 -0.654870
v 0.577512 0.537620 -0.654870
v -0.577767 0.537620 0.654870
v -0.506720 0.484280 -0.654870
v -0.506720 0.484280 0.654870
v -0.577767 0.537620 -0.654870
v 0.506465 0.000127 0.654870
v 0.654870 0.000127 0.654870
v -0.654870 0.000127 -0.654870
v -0.654870 0.000127 0.654870
v -0.506720 0.000127 -0.654870
v 0.654870 0.000127 -0.654870
v 0.506465 0.000127 -0.654870
v -0.506720 0.000127 0.654870
vt 0.0564 0.0563
vt 0.4304 0.0895
vt 0.0564 0.0895
vt 0.0564 0.5839
vt 0.0564 0.7042
vt 0.0140 0.5991
vt 0.0564 0.5618
vt 0.0412 0.5415
vt 0.0412 0.2521
vt 0.4457 0.5415
vt 0.4304 0.5839
vt 0.4304 0.5618
vt 0.3881 0.8078
vt 0.0140 0.9460
vt 0.0140 0.8078
vt 0.8197 0.2521
vt 0.4457 0.2521
vt 0.0141 0.0563
vt 0.0141 0.1946
vt 0.4728 0.7374
vt 0.4304 0.7374
vt 0.4304 0.7042
vt 0.4727 0.0563
vt 0.4727 0.1946
vt 0.0564 0.7797
vt 0.4304 0.7797
vt 0.4304 0.0140
vt 0.4304 0.0563
vt 0.8477 0.0140
vt 0.9860 0.3881
vt 0.8477 0.3881
vt 0.0564 0.2098
vt 0.4304 0.2098
vt 0.0140 0.7374
vt 0.0564 0.7374
vt 0.0564 0.2318
vt 0.4304 0.2318
vt 0.3881 0.9460
vt 0.8197 0.5415
vt 0.4728 0.5991
vt 0.0564 0.0140
vt 0.9860 0.0140
vn -1.0000 0.0000 -0.0000
vn -0.0000 0.0000 -1.0000
vn 0.0000 0.0000 1.0000
vn 0.0000 1.0000 -0.0000
vn 0.0000 -1.0000 0.0000
vn 1.0000 0.0000 0.0000
s off
f 19/1/1 3/2/1 7/3/1
f 6/4/2 5/5/2 11/6/2
f 12/7/2 11/8/2 14/9/2
f 9/10/3 2/11/3 10/12/3
f 11/13/1 17/14/1 9/15/1
f 10/12/4 2/11/4 12/7/4
f 14/16/5 9/10/5 15/17/5
f 21/18/2 7/3/2 14/19/2
f 17/20/3 18/21/3 1/22/3
f 24/23/3 15/24/3 3/2/3
f 23/25/5 18/21/5 17/26/5
f 19/1/5 24/27/5 20/28/5
f 15/29/6 21/30/6 14/31/6
f 18/21/6 5/5/6 1/22/6
f 8/32/1 7/3/1 3/2/1
f 19/1/1 20/28/1 3/2/1
f 3/2/1 4/33/1 8/32/1
f 23/34/2 11/6/2 5/5/2
f 5/5/2 22/35/2 23/34/2
f 14/9/2 8/32/2 16/36/2
f 12/7/2 6/4/2 11/8/2
f 14/9/2 16/36/2 12/7/2
f 13/37/3 4/33/3 15/17/3
f 15/17/3 9/10/3 10/12/3
f 10/12/3 13/37/3 15/17/3
f 11/13/1 23/38/1 17/14/1
f 16/36/4 8/32/4 4/33/4
f 13/37/4 10/12/4 12/7/4
f 16/36/4 4/33/4 13/37/4
f 2/11/4 6/4/4 12/7/4
f 12/7/4 16/36/4 13/37/4
f 14/16/5 11/39/5 9/10/5
f 8/32/2 14/19/2 7/3/2
f 21/18/2 19/1/2 7/3/2
f 1/22/3 2/11/3 9/40/3
f 9/40/3 17/20/3 1/22/3
f 4/33/3 3/2/3 15/24/3
f 20/28/3 24/23/3 3/2/3
f 23/25/5 22/35/5 18/21/5
f 19/1/5 21/41/5 24/27/5
f 15/29/6 24/42/6 21/30/6
f 2/11/6 1/22/6 5/5/6
f 18/21/6 22/35/6 5/5/6
f 5/5/6 6/4/6 2/11/6
