# Blender v2.77 (sub 0) OBJ File: 'Subwoofer.blend'
# www.blender.org
v -0.241527 0.830991 0.360089
v -0.241527 0.830991 -0.360089
v -0.241527 0.001394 -0.360089
v -0.241527 0.001394 0.360089
v -0.112539 0.195603 0.360089
v -0.114744 0.217989 0.360089
v -0.112539 0.240374 0.360089
v -0.106009 0.261899 0.360089
v -0.095406 0.281737 0.360089
v -0.081136 0.299125 0.360089
v -0.063748 0.313395 0.360089
v -0.043910 0.323998 0.360089
v -0.022385 0.330528 0.360089
v 0.000000 0.332732 0.360089
v 0.241527 0.830991 0.360089
v -0.000000 0.103245 0.360089
v -0.022385 0.105450 0.360089
v -0.043911 0.111979 0.360089
v -0.063748 0.122583 0.360089
v -0.081136 0.136853 0.360089
v -0.095406 0.154241 0.360089
v -0.106009 0.174078 0.360089
v 0.241527 0.830991 -0.360089
v -0.223583 0.814431 -0.360089
v -0.223583 0.017953 -0.360089
v 0.241527 0.001394 -0.360089
v 0.241527 0.001394 0.360089
v 0.000000 0.217989 0.179160
v 0.106009 0.261899 0.360089
v 0.112539 0.240374 0.360089
v 0.114744 0.217989 0.360089
v 0.112539 0.195603 0.360089
v 0.106009 0.174078 0.360089
v 0.095406 0.154240 0.360089
v 0.081136 0.136853 0.360089
v 0.063748 0.122583 0.360089
v 0.043911 0.111979 0.360089
v 0.022385 0.105450 0.360089
v 0.022385 0.330528 0.360089
v 0.043911 0.323998 0.360089
v 0.063748 0.313395 0.360089
v 0.081136 0.299125 0.360089
v 0.095406 0.281737 0.360089
v 0.223583 0.814431 -0.360089
v 0.223583 0.017953 -0.360089
v -0.223583 0.814431 -0.322161
v -0.223583 0.017953 -0.322161
v -0.096214 0.198851 0.370304
v 0.223583 0.814431 -0.322161
v 0.223583 0.017953 -0.322161
v -0.059717 0.217989 -0.322161
v -0.058569 0.206338 -0.322161
v -0.055171 0.195136 -0.322161
v -0.049653 0.184812 -0.322161
v -0.042226 0.175763 -0.322161
v -0.033177 0.168336 -0.322161
v -0.022853 0.162818 -0.322161
v -0.011650 0.159419 -0.322161
v -0.000000 0.158272 -0.322161
v 0.011650 0.159419 -0.322161
v 0.022853 0.162818 -0.322161
v 0.033177 0.168336 -0.322161
v 0.042226 0.175763 -0.322161
v 0.049653 0.184812 -0.322161
v 0.055171 0.195136 -0.322161
v 0.058569 0.206338 -0.322161
v 0.059717 0.217989 -0.322161
v 0.058569 0.229639 -0.322161
v 0.055171 0.240841 -0.322161
v 0.049653 0.251165 -0.322161
v 0.042226 0.260215 -0.322161
v 0.033177 0.267641 -0.322161
v 0.022853 0.273160 -0.322161
v 0.011650 0.276558 -0.322161
v 0.000000 0.277705 -0.322161
v -0.011650 0.276558 -0.322161
v -0.022852 0.273160 -0.322161
v -0.033177 0.267641 -0.322161
v -0.042226 0.260215 -0.322161
v -0.049653 0.251165 -0.322161
v -0.055171 0.240841 -0.322161
v -0.058569 0.229639 -0.322161
v 0.011650 0.276558 -0.213512
v 0.000000 0.277705 -0.213512
v -0.011650 0.276558 -0.213512
v 0.000347 0.217989 -0.213448
v 0.022853 0.273160 -0.213512
v -0.022852 0.273160 -0.213512
v 0.033177 0.267641 -0.213512
v -0.033177 0.267641 -0.213512
v 0.042226 0.260215 -0.213512
v -0.042226 0.260215 -0.213512
v 0.049653 0.251165 -0.213512
v -0.049653 0.251165 -0.213512
v 0.055171 0.240841 -0.213512
v -0.055171 0.240841 -0.213512
v 0.058569 0.229639 -0.213512
v -0.058569 0.229639 -0.213512
v 0.059717 0.217989 -0.213512
v -0.059717 0.217989 -0.213512
v 0.058569 0.206338 -0.213512
v -0.058569 0.206338 -0.213512
v 0.055171 0.195136 -0.213512
v -0.055171 0.195136 -0.213512
v 0.049653 0.184812 -0.213512
v -0.049653 0.184812 -0.213512
v 0.042226 0.175763 -0.213512
v -0.042226 0.175763 -0.213512
v 0.033177 0.168336 -0.213512
v -0.033177 0.168336 -0.213512
v 0.022853 0.162818 -0.213512
v -0.022853 0.162818 -0.213512
v 0.011650 0.159419 -0.213512
v -0.011650 0.159419 -0.213512
v -0.000000 0.158272 -0.213512
v -0.090632 0.180448 0.370304
v -0.090632 0.180448 0.179160
v -0.096214 0.198851 0.179160
v -0.098099 0.217989 0.370304
v -0.096214 0.237127 0.370304
v -0.098099 0.217989 0.179160
v -0.096214 0.237127 0.179160
v -0.090632 0.255530 0.370304
v -0.090632 0.255530 0.179160
v -0.081566 0.272490 0.370304
v -0.081566 0.272490 0.179160
v -0.069367 0.287355 0.370304
v -0.069367 0.287355 0.179160
v -0.054501 0.299555 0.370304
v -0.054501 0.299555 0.179160
v -0.037541 0.308621 0.370304
v -0.037541 0.308621 0.179160
v -0.019138 0.314203 0.370304
v -0.019138 0.314203 0.179160
v 0.000000 0.316088 0.370304
v 0.000000 0.316088 0.179160
v 0.090632 0.255530 0.370304
v 0.096214 0.237127 0.370304
v 0.098099 0.217989 0.370304
v 0.096214 0.198850 0.370304
v 0.090632 0.180448 0.370304
v 0.081567 0.163488 0.370304
v 0.069367 0.148622 0.370304
v 0.054501 0.136422 0.370304
v 0.037541 0.127357 0.370304
v 0.019138 0.121774 0.370304
v 0.000000 0.119889 0.370304
v 0.019138 0.314203 0.370304
v 0.037541 0.308621 0.370304
v 0.054501 0.299555 0.370304
v 0.069367 0.287355 0.370304
v 0.081567 0.272490 0.370304
v -0.019138 0.121774 0.370304
v 0.000000 0.119889 0.179160
v -0.019138 0.121774 0.179160
v -0.037541 0.127357 0.370304
v -0.037541 0.127357 0.179160
v -0.054501 0.136422 0.370304
v -0.054501 0.136422 0.179160
v -0.069367 0.148622 0.370304
v -0.069367 0.148622 0.179160
v -0.081567 0.163488 0.370304
v -0.081567 0.163488 0.179160
v 0.019138 0.314203 0.179160
v 0.081567 0.272490 0.179160
v 0.090632 0.255530 0.179160
v 0.096214 0.237127 0.179160
v 0.098099 0.217989 0.179160
v 0.096214 0.198850 0.179160
v 0.090632 0.180448 0.179160
v 0.081567 0.163488 0.179160
v 0.069367 0.148622 0.179160
v 0.054501 0.136422 0.179160
v 0.037541 0.127357 0.179160
v 0.019138 0.121774 0.179160
v 0.037541 0.308621 0.179160
v 0.054501 0.299555 0.179160
v 0.069367 0.287355 0.179160
vt 0.3171 0.6504
vt 0.0163 0.3496
vt 0.3171 0.3496
vt 0.5282 0.6504
vt 0.5282 0.3496
vt 0.7821 0.6663
vt 0.7747 0.3714
vt 0.7821 0.3654
vt 0.5288 0.3171
vt 0.3171 0.0163
vt 0.5288 0.0163
vt 0.3440 0.6864
vt 0.3663 0.6943
vt 0.3496 0.6967
vt 0.2605 0.7169
vt 0.2914 0.7198
vt 0.2803 0.7292
vt 0.2575 0.8193
vt 0.2658 0.8330
vt 0.2582 0.8337
vt 0.4076 0.7714
vt 0.4140 0.7725
vt 0.3833 0.8024
vt 0.3432 0.7756
vt 0.3473 0.7740
vt 0.4193 0.7740
vt 0.3746 0.7701
vt 0.3833 0.7700
vt 0.3833 0.6829
vt 0.3634 0.6838
vt 0.2571 0.8054
vt 0.2653 0.8204
vt 0.5147 0.7593
vt 0.5011 0.7738
vt 0.5005 0.7629
vt 0.4263 0.7776
vt 0.4283 0.7798
vt 0.4234 0.7757
vt 0.3371 0.7825
vt 0.3382 0.7798
vt 0.5103 0.7809
vt 0.5120 0.7702
vt 0.4294 0.7825
vt 0.5014 0.7961
vt 0.5013 0.7848
vt 0.0163 0.0163
vt 0.3171 0.3171
vt 0.0163 0.3171
vt 0.5712 0.6821
vt 0.7641 0.6761
vt 0.7716 0.6821
vt 0.7716 0.3496
vt 0.5787 0.3556
vt 0.5712 0.3496
vt 0.7747 0.6603
vt 0.7641 0.3714
vt 0.4284 0.7956
vt 0.4294 0.7902
vt 0.5015 0.8080
vt 0.4265 0.8022
vt 0.5012 0.8205
vt 0.4240 0.8102
vt 0.4003 0.6943
vt 0.3833 0.6935
vt 0.4170 0.6967
vt 0.3919 0.7701
vt 0.4329 0.7006
vt 0.4001 0.7706
vt 0.4480 0.7057
vt 0.4622 0.7120
vt 0.2651 0.7960
vt 0.2651 0.8080
vt 0.4752 0.7198
vt 0.5094 0.8055
vt 0.5097 0.7926
vt 0.3525 0.7725
vt 0.3460 0.8196
vt 0.3426 0.8101
vt 0.2562 0.7809
vt 0.2568 0.7925
vt 0.5083 0.8338
vt 0.5090 0.8194
vt 0.3382 0.7956
vt 0.3371 0.7902
vt 0.4298 0.7859
vt 0.2655 0.7738
vt 0.2653 0.7847
vt 0.3402 0.7775
vt 0.4032 0.6838
vt 0.3400 0.8022
vt 0.2914 0.7001
vt 0.2752 0.7070
vt 0.4944 0.7401
vt 0.4863 0.7293
vt 0.4987 0.7516
vt 0.5007 0.8331
vt 0.4205 0.8196
vt 0.3044 0.7120
vt 0.5607 0.3654
vt 0.5681 0.6602
vt 0.5607 0.6663
vt 0.5787 0.6761
vt 0.7641 0.6603
vt 0.7641 0.3556
vt 0.5787 0.3714
vt 0.2166 0.6829
vt 0.2166 0.9837
vt 0.1631 0.7696
vt 0.0163 0.6829
vt 0.1164 0.7199
vt 0.3664 0.7706
vt 0.3590 0.7714
vt 0.3337 0.7005
vt 0.3504 0.8307
vt 0.3367 0.7859
vt 0.2679 0.7515
vt 0.2661 0.7628
vt 0.3186 0.7056
vt 0.2721 0.7400
vt 0.5681 0.3714
vt 0.5787 0.6602
vt 0.7280 0.7346
vt 0.6775 0.7146
vt 0.7299 0.7262
vt 0.5624 0.7340
vt 0.6131 0.7146
vt 0.6110 0.7234
vt 0.6795 0.7235
vt 0.6454 0.7325
vt 0.7260 0.7428
vt 0.6089 0.7307
vt 0.5644 0.7422
vt 0.6815 0.7308
vt 0.7237 0.7505
vt 0.6068 0.7366
vt 0.5665 0.7499
vt 0.6835 0.7367
vt 0.7211 0.7576
vt 0.6047 0.7414
vt 0.5690 0.7570
vt 0.6855 0.7415
vt 0.7182 0.7641
vt 0.6028 0.7452
vt 0.5719 0.7636
vt 0.6874 0.7453
vt 0.7149 0.7700
vt 0.6010 0.7481
vt 0.5752 0.7695
vt 0.6891 0.7483
vt 0.6905 0.7506
vt 0.5996 0.7504
vt 0.5788 0.7749
vt 0.7071 0.7802
vt 0.7112 0.7753
vt 0.5985 0.7523
vt 0.5829 0.7798
vt 0.6916 0.7524
vt 0.7024 0.7848
vt 0.6024 0.7537
vt 0.5876 0.7844
vt 0.6877 0.7539
vt 0.6968 0.7891
vt 0.6068 0.7548
vt 0.5931 0.7887
vt 0.6832 0.7549
vt 0.6904 0.7930
vt 0.5995 0.7927
vt 0.6119 0.7556
vt 0.6782 0.7558
vt 0.6829 0.7964
vt 0.6176 0.7563
vt 0.6070 0.7962
vt 0.6725 0.7564
vt 0.6744 0.7993
vt 0.6239 0.7568
vt 0.6154 0.7991
vt 0.6662 0.7568
vt 0.6651 0.8015
vt 0.6307 0.7571
vt 0.6247 0.8014
vt 0.6594 0.7572
vt 0.6552 0.8028
vt 0.6378 0.7573
vt 0.6347 0.8028
vt 0.6523 0.7573
vt 0.6449 0.8033
vt 0.6451 0.7574
vt 0.6962 0.4440
vt 0.6957 0.4482
vt 0.6943 0.4523
vt 0.6920 0.4560
vt 0.6889 0.4593
vt 0.6852 0.4620
vt 0.6762 0.4652
vt 0.6714 0.4656
vt 0.6666 0.4652
vt 0.6619 0.4640
vt 0.6576 0.4620
vt 0.6539 0.4593
vt 0.6508 0.4560
vt 0.6485 0.4523
vt 0.6471 0.4482
vt 0.6466 0.4440
vt 0.6809 0.4640
vt 0.6471 0.4397
vt 0.6485 0.4357
vt 0.6508 0.4319
vt 0.6539 0.4287
vt 0.6576 0.4260
vt 0.6619 0.4240
vt 0.6666 0.4227
vt 0.6714 0.4223
vt 0.6762 0.4227
vt 0.6809 0.4240
vt 0.6852 0.4260
vt 0.6889 0.4287
vt 0.6920 0.4319
vt 0.6943 0.4357
vt 0.6957 0.4397
vt 0.1071 0.7207
vt 0.0982 0.7230
vt 0.0900 0.7269
vt 0.0828 0.7320
vt 0.0769 0.7383
vt 0.0725 0.7455
vt 0.0697 0.7533
vt 0.0688 0.7615
vt 0.0697 0.7696
vt 0.0163 0.9837
vt 0.0725 0.7774
vt 0.0769 0.7846
vt 0.0828 0.7909
vt 0.0900 0.7961
vt 0.0982 0.7999
vt 0.1071 0.8023
vt 0.1164 0.8031
vt 0.1257 0.7207
vt 0.1346 0.7230
vt 0.1429 0.7269
vt 0.1501 0.7320
vt 0.1560 0.7383
vt 0.1604 0.7455
vt 0.1631 0.7533
vt 0.1640 0.7615
vt 0.1604 0.7774
vt 0.1560 0.7846
vt 0.1501 0.7909
vt 0.1429 0.7961
vt 0.1346 0.7999
vt 0.1257 0.8023
vt 0.2491 0.7314
vt 0.3256 0.6903
vt 0.5173 0.7469
vt 0.5175 0.7315
vt 0.2493 0.7468
vt 0.5060 0.7170
vt 0.3082 0.6949
vt 0.4914 0.7070
vt 0.4752 0.7002
vt 0.4161 0.8307
vt 0.4584 0.6949
vt 0.2519 0.7592
vt 0.4410 0.6903
vt 0.4226 0.6865
vt 0.2546 0.7701
vt 0.0163 0.6504
vt 0.5607 0.7256
vn -1.0000 0.0000 0.0000
vn 0.0000 1.0000 0.0000
vn -0.0000 0.0000 -1.0000
vn 0.0000 -1.0000 0.0000
vn -0.1524 -0.5023 0.8512
vn -0.5023 -0.1524 0.8512
vn -0.0514 0.5224 0.8512
vn -0.0000 0.0000 1.0000
vn -0.0514 -0.5224 0.8512
vn -0.1524 0.5023 0.8512
vn 0.4629 0.2474 0.8512
vn 0.4058 0.3330 0.8512
vn 0.3330 0.4058 0.8512
vn 1.0000 0.0000 0.0000
vn -0.6344 -0.7730 0.0000
vn -0.7730 -0.6344 0.0000
vn -0.4714 -0.8819 0.0000
vn -0.2903 -0.9569 0.0000
vn -0.0980 0.9952 -0.0000
vn -0.2903 0.9569 0.0000
vn -0.4714 0.8819 0.0000
vn -0.6344 0.7730 0.0000
vn -0.7730 0.6344 0.0000
vn -0.2474 0.4629 0.8512
vn -0.8819 0.4714 -0.0000
vn 0.2474 0.4629 0.8512
vn 0.1524 0.5023 0.8512
vn -0.3330 0.4058 0.8512
vn 0.0514 0.5224 0.8512
vn -0.4058 0.3330 0.8512
vn 0.0514 -0.5224 0.8512
vn -0.4629 -0.2474 0.8512
vn -0.9952 0.0980 0.0000
vn -0.9952 -0.0980 0.0000
vn -0.9569 -0.2903 0.0000
vn -0.8819 -0.4714 -0.0000
vn -0.0980 -0.9952 0.0000
vn 0.8819 0.4714 0.0000
vn 0.7730 0.6344 0.0000
vn 0.2903 0.9569 0.0000
vn 0.4714 0.8819 0.0000
vn 0.0980 0.9952 -0.0000
vn 0.0980 -0.9952 0.0000
vn 0.2903 -0.9569 0.0000
vn 0.4714 -0.8819 -0.0000
vn 0.6344 -0.7730 0.0000
vn 0.7730 -0.6344 0.0000
vn 0.8819 -0.4714 0.0000
vn 0.9569 -0.2903 0.0000
vn -0.9569 0.2903 0.0000
vn 0.6344 0.7730 0.0000
vn 0.9952 -0.0980 0.0000
vn 0.9952 0.0980 0.0000
vn 0.9569 0.2903 0.0000
vn -0.0001 -0.0011 -1.0000
vn 0.0001 -0.0011 -1.0000
vn -0.0003 -0.0010 -1.0000
vn 0.0003 -0.0010 -1.0000
vn -0.0005 -0.0010 -1.0000
vn 0.0005 -0.0009 -1.0000
vn -0.0007 -0.0008 -1.0000
vn 0.0007 -0.0008 -1.0000
vn -0.0008 -0.0007 -1.0000
vn 0.0008 -0.0007 -1.0000
vn -0.0010 -0.0005 -1.0000
vn 0.0009 -0.0005 -1.0000
vn -0.0010 -0.0003 -1.0000
vn 0.0010 -0.0003 -1.0000
vn -0.0011 -0.0001 -1.0000
vn 0.0011 -0.0001 -1.0000
vn -0.0011 0.0001 -1.0000
vn 0.0011 0.0001 -1.0000
vn -0.0010 0.0003 -1.0000
vn 0.0010 0.0003 -1.0000
vn -0.0010 0.0005 -1.0000
vn 0.0009 0.0005 -1.0000
vn -0.0008 0.0007 -1.0000
vn 0.0008 0.0007 -1.0000
vn -0.0007 0.0008 -1.0000
vn 0.0007 0.0008 -1.0000
vn -0.0005 0.0010 -1.0000
vn 0.0005 0.0009 -1.0000
vn -0.0003 0.0010 -1.0000
vn 0.0003 0.0010 -1.0000
vn -0.0001 0.0011 -1.0000
vn 0.0001 0.0011 -1.0000
vn -0.5224 -0.0514 0.8512
vn -0.2474 -0.4629 0.8512
vn 0.5023 0.1524 0.8512
vn 0.5224 0.0515 0.8512
vn -0.5224 0.0515 0.8512
vn 0.5224 -0.0514 0.8512
vn -0.3330 -0.4058 0.8512
vn 0.5023 -0.1524 0.8512
vn 0.4629 -0.2474 0.8512
vn 0.4058 -0.3330 0.8512
vn -0.5023 0.1524 0.8512
vn -0.4058 -0.3330 0.8512
vn 0.3330 -0.4058 0.8512
vn 0.2474 -0.4629 0.8512
vn 0.1524 -0.5023 0.8512
vn -0.4629 0.2474 0.8512
vn 0.0515 0.5224 0.8512
vn 0.5224 0.0514 0.8512
vn 0.5224 -0.0515 0.8512
s off
f 2/1/1 4/2/1 1/3/1
f 23/4/2 1/3/2 15/5/2
f 2/6/3 25/7/3 3/8/3
f 3/9/4 27/10/4 4/11/4
f 18/12/5 153/13/5 156/14/5
f 5/15/6 116/16/6 48/17/6
f 13/18/7 135/19/7 14/20/7
f 173/21/8 172/22/8 28/23/8
f 117/24/8 163/25/8 28/23/8
f 172/22/8 171/26/8 28/23/8
f 155/27/8 154/28/8 28/23/8
f 16/29/9 153/13/9 17/30/9
f 12/31/10 133/32/10 13/18/10
f 29/33/11 152/34/11 137/35/11
f 169/36/8 168/37/8 28/23/8
f 171/26/8 170/38/8 28/23/8
f 122/39/8 121/40/8 28/23/8
f 42/41/12 152/34/12 43/42/12
f 168/37/8 167/43/8 28/23/8
f 42/41/13 150/44/13 151/45/13
f 15/46/14 26/47/14 23/48/14
f 23/49/3 24/50/3 2/51/3
f 3/52/3 45/53/3 26/54/3
f 24/55/14 47/56/14 25/7/14
f 150/44/15 178/57/15 151/45/15
f 151/45/16 165/58/16 152/34/16
f 149/59/17 177/60/17 150/44/17
f 148/61/18 176/62/18 149/59/18
f 146/63/19 154/28/19 147/64/19
f 145/65/20 175/66/20 146/63/20
f 144/67/21 174/68/21 145/65/21
f 143/69/22 173/21/22 144/67/22
f 142/70/23 172/22/23 143/69/23
f 12/31/24 129/71/24 131/72/24
f 141/73/25 171/26/25 142/70/25
f 40/74/26 150/44/26 41/75/26
f 163/25/8 161/76/8 28/23/8
f 134/77/8 132/78/8 28/23/8
f 40/74/27 148/61/27 149/59/27
f 10/79/28 129/71/28 11/80/28
f 14/81/29 148/61/29 39/82/29
f 128/83/8 126/84/8 28/23/8
f 167/43/8 166/85/8 28/23/8
f 10/79/30 125/86/30 127/87/30
f 118/88/8 117/24/8 28/23/8
f 170/38/8 169/36/8 28/23/8
f 166/85/8 165/58/8 28/23/8
f 38/89/31 147/64/31 16/29/31
f 130/90/8 128/83/8 28/23/8
f 21/91/32 116/16/32 22/92/32
f 139/93/33 169/36/33 140/94/33
f 138/95/34 168/37/34 139/93/34
f 137/35/35 167/43/35 138/95/35
f 152/34/36 166/85/36 137/35/36
f 135/96/37 164/97/37 148/61/37
f 162/98/38 117/24/38 116/16/38
f 26/99/3 44/100/3 23/101/3
f 44/102/4 46/103/4 24/50/4
f 25/104/2 50/105/2 45/53/2
f 27/106/8 15/107/8 30/108/8
f 4/109/8 27/106/8 16/110/8
f 162/98/39 161/76/39 163/25/39
f 153/13/40 157/111/40 156/14/40
f 156/14/41 159/112/41 158/113/41
f 147/64/42 155/27/42 153/13/42
f 133/32/43 136/114/43 135/19/43
f 131/72/44 134/77/44 133/32/44
f 129/71/45 132/78/45 131/72/45
f 127/87/46 130/90/46 129/71/46
f 125/86/47 128/83/47 127/87/47
f 125/86/48 124/115/48 126/84/48
f 120/116/49 124/115/49 123/117/49
f 140/94/50 170/38/50 141/73/50
f 158/113/51 161/76/51 160/118/51
f 119/119/52 122/39/52 120/116/52
f 48/17/53 121/40/53 119/119/53
f 116/16/54 118/88/54 48/17/54
f 45/120/1 49/121/1 44/100/1
f 74/122/37 84/123/37 75/124/37
f 76/125/43 84/126/43 85/127/43
f 83/128/55 86/129/55 84/123/55
f 73/130/18 83/128/18 74/122/18
f 76/125/44 88/131/44 77/132/44
f 84/126/56 86/129/56 85/127/56
f 87/133/57 86/129/57 83/128/57
f 72/134/17 87/133/17 73/130/17
f 77/132/45 90/135/45 78/136/45
f 85/127/58 86/129/58 88/131/58
f 89/137/59 86/129/59 87/133/59
f 71/138/15 89/137/15 72/134/15
f 78/136/46 92/139/46 79/140/46
f 88/131/60 86/129/60 90/135/60
f 91/141/61 86/129/61 89/137/61
f 70/142/16 91/141/16 71/138/16
f 79/140/47 94/143/47 80/144/47
f 90/135/62 86/129/62 92/139/62
f 93/145/63 86/129/63 91/141/63
f 69/146/36 93/145/36 70/142/36
f 80/144/48 96/147/48 81/148/48
f 92/139/64 86/129/64 94/143/64
f 95/149/65 86/129/65 93/145/65
f 69/146/35 97/150/35 95/149/35
f 81/148/49 98/151/49 82/152/49
f 94/143/66 86/129/66 96/147/66
f 97/150/67 86/129/67 95/149/67
f 67/153/34 97/150/34 68/154/34
f 82/152/52 100/155/52 51/156/52
f 96/147/68 86/129/68 98/151/68
f 99/157/69 86/129/69 97/150/69
f 66/158/33 99/157/33 67/153/33
f 51/156/53 102/159/53 52/160/53
f 98/151/70 86/129/70 100/155/70
f 101/161/71 86/129/71 99/157/71
f 65/162/50 101/161/50 66/158/50
f 52/160/54 104/163/54 53/164/54
f 100/155/72 86/129/72 102/159/72
f 103/165/73 86/129/73 101/161/73
f 64/166/25 103/165/25 65/162/25
f 54/167/38 104/163/38 106/168/38
f 102/159/74 86/129/74 104/163/74
f 105/169/75 86/129/75 103/165/75
f 63/170/23 105/169/23 64/166/23
f 54/167/39 108/171/39 55/172/39
f 104/163/76 86/129/76 106/168/76
f 107/173/77 86/129/77 105/169/77
f 62/174/22 107/173/22 63/170/22
f 55/172/51 110/175/51 56/176/51
f 106/168/78 86/129/78 108/171/78
f 109/177/79 86/129/79 107/173/79
f 61/178/21 109/177/21 62/174/21
f 56/176/41 112/179/41 57/180/41
f 108/171/80 86/129/80 110/175/80
f 111/181/81 86/129/81 109/177/81
f 60/182/20 111/181/20 61/178/20
f 57/180/40 114/183/40 58/184/40
f 110/175/82 86/129/82 112/179/82
f 113/185/83 86/129/83 111/181/83
f 59/186/19 113/185/19 60/182/19
f 58/184/42 115/187/42 59/186/42
f 112/179/84 86/129/84 114/183/84
f 115/187/85 86/129/85 113/185/85
f 114/183/86 86/129/86 115/187/86
f 51/188/3 47/56/3 82/189/3
f 82/189/3 47/56/3 81/190/3
f 81/190/3 47/56/3 80/191/3
f 47/56/3 46/103/3 80/191/3
f 46/103/3 79/192/3 80/191/3
f 46/103/3 78/193/3 79/192/3
f 76/194/3 46/103/3 75/195/3
f 75/195/3 46/103/3 74/196/3
f 74/196/3 46/103/3 73/197/3
f 73/197/3 46/103/3 72/198/3
f 72/198/3 46/103/3 71/199/3
f 71/199/3 49/121/3 70/200/3
f 70/200/3 49/121/3 69/201/3
f 69/201/3 49/121/3 68/202/3
f 68/202/3 49/121/3 67/203/3
f 46/103/3 77/204/3 78/193/3
f 71/199/3 46/103/3 49/121/3
f 46/103/3 76/194/3 77/204/3
f 67/203/3 50/105/3 66/205/3
f 66/205/3 50/105/3 65/206/3
f 65/206/3 50/105/3 64/207/3
f 64/207/3 50/105/3 63/208/3
f 63/208/3 50/105/3 62/209/3
f 62/209/3 50/105/3 61/210/3
f 61/210/3 50/105/3 60/211/3
f 60/211/3 50/105/3 59/212/3
f 59/212/3 47/56/3 58/213/3
f 58/213/3 47/56/3 57/214/3
f 57/214/3 47/56/3 56/215/3
f 56/215/3 47/56/3 55/216/3
f 55/216/3 47/56/3 54/217/3
f 54/217/3 47/56/3 53/218/3
f 53/218/3 47/56/3 52/219/3
f 52/219/3 47/56/3 51/188/3
f 59/212/3 50/105/3 47/56/3
f 16/110/8 17/220/8 4/109/8
f 17/220/8 18/221/8 4/109/8
f 18/221/8 19/222/8 4/109/8
f 19/222/8 20/223/8 4/109/8
f 20/223/8 21/224/8 4/109/8
f 21/224/8 22/225/8 4/109/8
f 22/225/8 5/226/8 4/109/8
f 4/109/8 5/226/8 6/227/8
f 6/227/8 7/228/8 1/229/8
f 7/228/8 8/230/8 1/229/8
f 8/230/8 9/231/8 1/229/8
f 9/231/8 10/232/8 1/229/8
f 1/229/8 10/232/8 11/233/8
f 11/233/8 12/234/8 15/107/8
f 12/234/8 13/235/8 15/107/8
f 13/235/8 14/236/8 15/107/8
f 4/109/8 6/227/8 1/229/8
f 1/229/8 11/233/8 15/107/8
f 16/110/8 27/106/8 38/237/8
f 38/237/8 27/106/8 37/238/8
f 37/238/8 27/106/8 36/239/8
f 36/239/8 27/106/8 35/240/8
f 35/240/8 27/106/8 34/241/8
f 34/241/8 27/106/8 33/242/8
f 33/242/8 27/106/8 32/243/8
f 32/243/8 27/106/8 31/244/8
f 27/106/8 30/108/8 31/244/8
f 30/108/8 15/107/8 29/245/8
f 29/245/8 15/107/8 43/246/8
f 43/246/8 15/107/8 42/247/8
f 42/247/8 15/107/8 41/248/8
f 41/248/8 15/107/8 40/249/8
f 40/249/8 15/107/8 39/250/8
f 39/250/8 15/107/8 14/236/8
f 49/121/3 50/105/3 67/203/3
f 165/58/8 178/57/8 28/23/8
f 161/76/8 159/112/8 28/23/8
f 136/114/8 134/77/8 28/23/8
f 5/15/87 119/119/87 6/251/87
f 18/12/88 158/113/88 19/252/88
f 124/115/8 122/39/8 28/23/8
f 30/253/89 137/35/89 138/95/89
f 178/57/8 177/60/8 28/23/8
f 30/253/90 139/93/90 31/254/90
f 7/255/91 119/119/91 120/116/91
f 132/78/8 130/90/8 28/23/8
f 177/60/8 176/62/8 28/23/8
f 31/254/92 140/94/92 32/256/92
f 19/252/93 160/118/93 20/257/93
f 32/256/94 141/73/94 33/258/94
f 159/112/8 157/111/8 28/23/8
f 176/62/8 164/97/8 28/23/8
f 33/258/95 142/70/95 34/259/95
f 154/28/8 175/66/8 28/23/8
f 164/97/8 136/260/8 28/23/8
f 34/259/96 143/69/96 35/261/96
f 8/262/97 120/116/97 123/117/97
f 21/91/98 160/118/98 162/98/98
f 35/261/99 144/67/99 36/263/99
f 175/66/8 174/68/8 28/23/8
f 121/40/8 118/88/8 28/23/8
f 126/84/8 124/115/8 28/23/8
f 37/264/100 144/67/100 145/65/100
f 157/111/8 155/27/8 28/23/8
f 37/264/101 146/63/101 38/89/101
f 9/265/102 123/117/102 125/86/102
f 174/68/8 173/21/8 28/23/8
f 2/1/1 3/266/1 4/2/1
f 23/4/2 2/1/2 1/3/2
f 2/6/3 24/55/3 25/7/3
f 3/9/4 26/47/4 27/10/4
f 18/12/5 17/30/5 153/13/5
f 5/15/6 22/92/6 116/16/6
f 13/18/7 133/32/7 135/19/7
f 16/29/9 147/64/9 153/13/9
f 12/31/10 131/72/10 133/32/10
f 29/33/11 43/42/11 152/34/11
f 42/41/12 151/45/12 152/34/12
f 42/41/13 41/75/13 150/44/13
f 15/46/14 27/10/14 26/47/14
f 23/49/3 44/102/3 24/50/3
f 3/52/3 25/104/3 45/53/3
f 24/55/14 46/103/14 47/56/14
f 150/44/15 177/60/15 178/57/15
f 151/45/16 178/57/16 165/58/16
f 149/59/17 176/62/17 177/60/17
f 148/61/18 164/97/18 176/62/18
f 146/63/19 175/66/19 154/28/19
f 145/65/20 174/68/20 175/66/20
f 144/67/21 173/21/21 174/68/21
f 143/69/22 172/22/22 173/21/22
f 142/70/23 171/26/23 172/22/23
f 12/31/24 11/80/24 129/71/24
f 141/73/25 170/38/25 171/26/25
f 40/74/26 149/59/26 150/44/26
f 40/74/27 39/82/27 148/61/27
f 10/79/28 127/87/28 129/71/28
f 14/81/103 135/96/103 148/61/103
f 10/79/30 9/265/30 125/86/30
f 38/89/31 146/63/31 147/64/31
f 21/91/32 162/98/32 116/16/32
f 139/93/33 168/37/33 169/36/33
f 138/95/34 167/43/34 168/37/34
f 137/35/35 166/85/35 167/43/35
f 152/34/36 165/58/36 166/85/36
f 135/96/37 136/260/37 164/97/37
f 162/98/38 163/25/38 117/24/38
f 26/99/3 45/120/3 44/100/3
f 44/102/4 49/121/4 46/103/4
f 25/104/2 47/56/2 50/105/2
f 162/98/39 160/118/39 161/76/39
f 153/13/40 155/27/40 157/111/40
f 156/14/41 157/111/41 159/112/41
f 147/64/42 154/28/42 155/27/42
f 133/32/43 134/77/43 136/114/43
f 131/72/44 132/78/44 134/77/44
f 129/71/45 130/90/45 132/78/45
f 127/87/46 128/83/46 130/90/46
f 125/86/47 126/84/47 128/83/47
f 125/86/48 123/117/48 124/115/48
f 120/116/49 122/39/49 124/115/49
f 140/94/50 169/36/50 170/38/50
f 158/113/51 159/112/51 161/76/51
f 119/119/52 121/40/52 122/39/52
f 48/17/53 118/88/53 121/40/53
f 116/16/54 117/24/54 118/88/54
f 45/120/1 50/105/1 49/121/1
f 74/122/37 83/128/37 84/123/37
f 76/125/43 75/267/43 84/126/43
f 73/130/18 87/133/18 83/128/18
f 76/125/44 85/127/44 88/131/44
f 72/134/17 89/137/17 87/133/17
f 77/132/45 88/131/45 90/135/45
f 71/138/15 91/141/15 89/137/15
f 78/136/46 90/135/46 92/139/46
f 70/142/16 93/145/16 91/141/16
f 79/140/47 92/139/47 94/143/47
f 69/146/36 95/149/36 93/145/36
f 80/144/48 94/143/48 96/147/48
f 69/146/35 68/154/35 97/150/35
f 81/148/49 96/147/49 98/151/49
f 67/153/34 99/157/34 97/150/34
f 82/152/52 98/151/52 100/155/52
f 66/158/33 101/161/33 99/157/33
f 51/156/53 100/155/53 102/159/53
f 65/162/50 103/165/50 101/161/50
f 52/160/54 102/159/54 104/163/54
f 64/166/25 105/169/25 103/165/25
f 54/167/38 53/164/38 104/163/38
f 63/170/23 107/173/23 105/169/23
f 54/167/39 106/168/39 108/171/39
f 62/174/22 109/177/22 107/173/22
f 55/172/51 108/171/51 110/175/51
f 61/178/21 111/181/21 109/177/21
f 56/176/41 110/175/41 112/179/41
f 60/182/20 113/185/20 111/181/20
f 57/180/40 112/179/40 114/183/40
f 59/186/19 115/187/19 113/185/19
f 58/184/42 114/183/42 115/187/42
f 5/15/87 48/17/87 119/119/87
f 18/12/88 156/14/88 158/113/88
f 30/253/89 29/33/89 137/35/89
f 30/253/104 138/95/104 139/93/104
f 7/255/91 6/251/91 119/119/91
f 31/254/105 139/93/105 140/94/105
f 19/252/93 158/113/93 160/118/93
f 32/256/94 140/94/94 141/73/94
f 33/258/95 141/73/95 142/70/95
f 34/259/96 142/70/96 143/69/96
f 8/262/97 7/255/97 120/116/97
f 21/91/98 20/257/98 160/118/98
f 35/261/99 143/69/99 144/67/99
f 37/264/100 36/263/100 144/67/100
f 37/264/101 145/65/101 146/63/101
f 9/265/102 8/262/102 123/117/102
