# Blender v2.77 (sub 0) OBJ File: ''
# www.blender.org
v 0.085013 -0.067227 -0.129557
v 0.085013 -0.067227 0.129557
v -0.085013 -0.067227 0.129557
v -0.085013 -0.067227 -0.129557
v 0.085013 0.503488 -0.129557
v 0.085013 0.503488 0.129557
v -0.085013 0.503488 0.129557
v -0.085013 0.503488 -0.129557
v 0.085013 -0.033306 -0.100248
v 0.085013 -0.033306 0.100248
v 0.085013 0.469567 -0.100248
v 0.085013 0.469567 0.100248
v -0.075867 -0.033306 -0.100248
v -0.075867 -0.033306 0.100248
v -0.075867 0.469567 -0.100248
v -0.075867 0.469567 0.100248
v -0.102027 -0.010788 0.093281
v -0.045116 0.461381 0.093281
v -0.102027 -0.010788 -0.091492
v -0.045116 0.461381 -0.091492
v 0.081418 -0.032899 0.093281
v 0.138329 0.439271 0.093281
v 0.081418 -0.032899 -0.091492
v 0.138329 0.439271 -0.091492
vn 0.0000 -1.0000 -0.0000
vn 0.0000 1.0000 0.0000
vn 1.0000 0.0000 0.0000
vn 0.0000 -0.0000 1.0000
vn 0.0000 0.0000 -1.0000
vn -0.9928 0.1197 0.0000
vn 0.9928 -0.1197 0.0000
vn -0.1197 -0.9928 0.0000
vn 0.1197 0.9928 0.0000
s off
f 1//1 3//1 4//1
f 5//2 7//2 6//2
f 5//3 12//3 11//3
f 6//4 3//4 2//4
f 1//5 8//5 5//5
f 10//5 16//5 12//5
f 2//3 12//3 6//3
f 5//3 9//3 1//3
f 2//3 9//3 10//3
f 15//3 14//3 13//3
f 9//2 14//2 10//2
f 12//1 15//1 11//1
f 11//4 13//4 9//4
f 20//6 17//6 18//6
f 24//5 19//5 20//5
f 22//7 23//7 24//7
f 22//4 17//4 21//4
f 19//8 21//8 17//8
f 24//9 18//9 22//9
f 1//1 2//1 3//1
f 5//2 8//2 7//2
f 5//3 6//3 12//3
f 6//4 7//4 3//4
f 1//5 4//5 8//5
f 10//5 14//5 16//5
f 2//3 10//3 12//3
f 5//3 11//3 9//3
f 2//3 1//3 9//3
f 15//3 16//3 14//3
f 9//2 13//2 14//2
f 12//1 16//1 15//1
f 11//4 15//4 13//4
f 20//6 19//6 17//6
f 24//5 23//5 19//5
f 22//7 21//7 23//7
f 22//4 18//4 17//4
f 19//8 23//8 21//8
f 24//9 20//9 18//9
