# Blender v2.77 (sub 0) OBJ File: 'TV.blend'
# www.blender.org
v -0.574147 0.002338 0.216207
v -0.574147 0.017786 0.216207
v -0.574147 0.002338 -0.216207
v -0.574147 0.017786 -0.216207
v 0.574147 0.002338 0.216207
v 0.574147 0.017786 0.216207
v 0.574147 0.002338 -0.216207
v 0.574147 0.017786 -0.216207
v -0.465401 0.033151 0.175257
v -0.465401 0.033151 -0.175257
v 0.465401 0.033151 -0.175257
v 0.465401 0.033151 0.175257
v -0.346634 0.033151 -0.066104
v -0.346634 0.033151 -0.133067
v 0.346634 0.033151 -0.133067
v 0.346634 0.033151 -0.066104
v -0.307728 0.423378 -0.080222
v -0.297904 0.825705 -0.108016
v 0.297904 0.825705 -0.108016
v 0.307728 0.423378 -0.080222
v -0.294351 0.847191 -0.053483
v 0.278676 0.847191 -0.053483
v -1.483299 0.230849 0.011586
v -1.483299 1.816416 0.011586
v -1.483299 0.230849 -0.011586
v -1.483299 1.816416 -0.011586
v 1.483299 0.230849 0.011586
v 1.483299 1.816416 0.011586
v 1.483299 0.230849 -0.011586
v 1.483299 1.816416 -0.011586
v -1.450229 0.256918 0.011586
v -1.450229 1.790347 0.011586
v 1.450229 1.790347 0.011586
v 1.450229 0.256918 0.011586
v -1.430749 0.267217 0.005931
v -1.430749 1.780049 0.005931
v 1.430749 1.780049 0.005931
v 1.430749 0.267217 0.005931
v -1.144734 1.546118 -0.059597
v -1.144734 0.322460 -0.059597
v 1.144734 1.546118 -0.059597
v 1.144734 0.322460 -0.059597
vt 0.8993 0.3557
vt 0.9997 0.3521
vt 0.9997 0.3557
vt 0.9315 0.2039
vt 0.6654 0.2085
vt 0.6654 0.2039
vt 0.7984 0.3557
vt 0.8988 0.3521
vt 0.8988 0.3557
vt 0.5325 0.3568
vt 0.7979 0.3531
vt 0.7979 0.3577
vt 0.9315 0.3087
vt 0.6654 0.3087
vt 0.8079 0.3812
vt 0.8893 0.3812
vt 0.8639 0.4088
vt 0.9088 0.3812
vt 0.5576 0.3670
vt 0.9063 0.1938
vt 0.8795 0.4088
vt 0.8672 0.4999
vt 0.9342 0.4088
vt 0.9186 0.4088
vt 0.7727 0.3677
vt 0.5849 0.4228
vt 0.6906 0.1938
vt 0.8787 0.1840
vt 0.9309 0.4999
vt 0.9232 0.5933
vt 0.7451 0.4234
vt 0.5935 0.5131
vt 0.7181 0.1840
vt 0.8675 0.0003
vt 0.9128 0.8253
vt 0.9094 0.6907
vt 0.9233 0.6873
vt 0.9287 0.5938
vt 0.8993 0.8235
vt 0.9287 0.9177
vt 0.0003 0.7832
vt 0.3991 0.7363
vt 0.0015 0.7926
vt 0.8982 0.8365
vt 0.4551 0.9514
vt 0.4728 0.9041
vt 0.4729 0.8963
vt 0.0119 0.8027
vt 0.3992 0.7292
vt 0.8298 0.7972
vt 0.0021 0.8218
vt 0.0137 0.8152
vt 0.4658 0.8803
vt 0.4708 0.8878
vt 0.4011 0.7442
vt 0.8853 0.8159
vt 0.8966 0.8264
vt 0.0003 0.3516
vt 0.6649 0.0003
vt 0.6649 0.3516
vt 0.0164 0.8089
vt 0.8193 0.8034
vt 0.4058 0.7511
vt 0.8804 0.8094
vt 0.5320 0.3521
vt 0.0003 0.6363
vt 0.0003 0.3521
vt 0.7705 0.7587
vt 0.8313 0.7870
vt 0.0634 0.9052
vt 0.0003 0.8329
vt 0.1071 0.6369
vt 0.4336 0.7169
vt 0.8993 0.3521
vt 0.9315 0.2085
vt 0.7984 0.3521
vt 0.5325 0.3521
vt 0.9902 0.3812
vt 0.8749 0.5933
vt 0.7358 0.5136
vt 0.7294 0.0003
vt 0.8673 0.9516
vt 0.0276 0.8094
vt 0.0003 0.0003
vt 0.8067 0.8089
vt 0.5320 0.6363
vn -1.0000 0.0000 0.0000
vn 0.0000 0.0000 -1.0000
vn 1.0000 0.0000 0.0000
vn 0.0000 0.0000 1.0000
vn 0.0000 -1.0000 0.0000
vn 0.1399 0.9902 0.0000
vn 0.0000 1.0000 0.0000
vn -0.1399 0.9902 0.0000
vn 0.0000 0.9363 0.3513
vn 0.0000 0.9363 -0.3513
vn 0.9951 0.0992 0.0000
vn -0.9374 0.0467 0.3451
vn 0.0000 0.0362 0.9993
vn 0.0000 0.0316 -0.9995
vn 0.0000 0.9304 -0.3666
vn 0.9476 0.0450 0.3164
vn -0.9981 0.0281 0.0540
vn 0.1404 0.0000 -0.9901
vn 0.0000 -0.4813 0.8766
vn 0.2788 0.0000 0.9604
vn 0.0000 0.4813 0.8766
vn -0.2788 0.0000 0.9604
vn 0.0000 -0.4642 -0.8857
vn 0.0000 0.1749 -0.9846
vn -0.1404 0.0000 -0.9901
vn 0.9374 0.0467 0.3451
vn -0.9951 0.0992 0.0000
s off
f 4/1/1 1/2/1 2/3/1
f 8/4/2 3/5/2 4/6/2
f 6/7/3 7/8/3 8/9/3
f 2/10/4 5/11/4 6/12/4
f 3/5/5 5/13/5 1/14/5
f 8/9/6 12/15/6 6/7/6
f 11/16/7 16/17/7 12/15/7
f 2/3/8 10/18/8 4/1/8
f 6/12/9 9/19/9 2/10/9
f 4/6/10 11/20/10 8/4/10
f 15/21/11 20/22/11 16/17/11
f 10/18/7 13/23/7 14/24/7
f 12/25/7 13/26/7 9/19/7
f 10/27/7 15/28/7 11/20/7
f 14/24/12 17/29/12 18/30/12
f 16/31/13 17/32/13 13/26/13
f 14/33/14 19/34/14 15/28/14
f 18/35/15 22/36/15 19/37/15
f 22/36/16 20/38/16 19/37/16
f 21/39/17 18/35/17 17/40/17
f 26/41/1 23/42/1 24/43/1
f 29/44/18 41/45/18 30/46/18
f 28/47/3 29/44/3 30/46/3
f 23/42/4 32/48/4 24/43/4
f 25/49/5 27/50/5 23/42/5
f 30/46/7 24/51/7 28/47/7
f 32/52/19 37/53/19 33/54/19
f 27/50/4 31/55/4 23/42/4
f 24/51/4 33/54/4 28/47/4
f 28/47/4 34/56/4 27/57/4
f 36/58/4 38/59/4 37/60/4
f 31/55/20 36/61/20 32/48/20
f 34/62/21 35/63/21 31/55/21
f 33/54/22 38/64/22 34/56/22
f 41/65/2 40/66/2 39/67/2
f 25/49/23 42/68/23 29/69/23
f 30/46/24 39/70/24 26/71/24
f 25/49/25 39/72/25 40/73/25
f 4/1/1 3/74/1 1/2/1
f 8/4/2 7/75/2 3/5/2
f 6/7/3 5/76/3 7/8/3
f 2/10/4 1/77/4 5/11/4
f 3/5/5 7/75/5 5/13/5
f 8/9/6 11/16/6 12/15/6
f 11/16/7 15/21/7 16/17/7
f 2/3/8 9/78/8 10/18/8
f 6/12/9 12/25/9 9/19/9
f 4/6/10 10/27/10 11/20/10
f 15/21/26 19/79/26 20/22/26
f 10/18/7 9/78/7 13/23/7
f 12/25/7 16/31/7 13/26/7
f 10/27/7 14/33/7 15/28/7
f 14/24/27 13/23/27 17/29/27
f 16/31/13 20/80/13 17/32/13
f 14/33/14 18/81/14 19/34/14
f 18/35/15 21/39/15 22/36/15
f 26/41/1 25/49/1 23/42/1
f 29/44/18 42/82/18 41/45/18
f 28/47/3 27/57/3 29/44/3
f 23/42/4 31/55/4 32/48/4
f 25/49/5 29/69/5 27/50/5
f 30/46/7 26/71/7 24/51/7
f 32/52/19 36/83/19 37/53/19
f 27/50/4 34/62/4 31/55/4
f 24/51/4 32/52/4 33/54/4
f 28/47/4 33/54/4 34/56/4
f 36/58/4 35/84/4 38/59/4
f 31/55/20 35/63/20 36/61/20
f 34/62/21 38/85/21 35/63/21
f 33/54/22 37/53/22 38/64/22
f 41/65/2 42/86/2 40/66/2
f 25/49/23 40/73/23 42/68/23
f 30/46/24 41/45/24 39/70/24
f 25/49/25 26/41/25 39/72/25
