# Blender v2.77 (sub 0) OBJ File: 'Wall socket.blend'
# www.blender.org
v -0.103502 -0.170199 0.039690
v -0.103502 0.170199 0.000223
v 0.103502 0.170199 0.039690
v -0.103502 -0.170199 0.000223
v 0.103502 -0.170199 0.039690
v 0.103502 0.170199 0.000223
v -0.103502 0.170199 0.039690
v 0.051751 -0.121571 0.039690
v -0.051751 -0.121571 0.039690
v 0.051751 -0.024314 0.039690
v -0.051751 -0.024314 0.039690
v 0.051751 0.024314 0.039690
v -0.051751 0.024314 0.039690
v 0.051751 0.121571 0.039690
v -0.051751 0.121571 0.039690
v 0.103502 -0.170199 0.000223
v 0.051751 -0.121571 0.010918
v -0.051751 -0.121571 0.010918
v 0.051751 -0.024314 0.010918
v -0.051751 -0.024314 0.010918
v 0.051751 0.024314 0.010918
v -0.051751 0.024314 0.010918
v 0.051751 0.121571 0.010918
v -0.051751 0.121571 0.010918
vt 0.6093 0.8031
vt 0.5279 0.1009
vt 0.6093 0.1009
vt 0.1009 0.8031
vt 0.0195 0.1009
vt 0.1009 0.1009
vt 0.5279 0.0195
vt 0.1009 0.0195
vt 0.9805 0.2795
vt 0.9212 0.0788
vt 0.9805 0.0788
vt 0.9212 0.3778
vt 0.7077 0.4372
vt 0.7077 0.3778
vt 0.7077 0.3388
vt 0.9212 0.2795
vt 0.9212 0.3388
vt 0.6483 0.0788
vt 0.7077 0.2795
vt 0.6483 0.2795
vt 0.1009 0.8845
vt 0.5279 0.8031
vt 0.5279 0.8845
vt 0.4212 0.2012
vt 0.9805 0.6378
vt 0.9212 0.4372
vt 0.9805 0.4372
vt 0.7077 0.0788
vt 0.9212 0.6378
vt 0.2077 0.7027
vt 0.6483 0.4372
vt 0.7077 0.6378
vt 0.6483 0.6378
vt 0.9212 0.0195
vt 0.7077 0.0195
vt 0.7077 0.6971
vt 0.9212 0.6971
vt 0.2077 0.4018
vt 0.4212 0.5021
vt 0.2077 0.5021
vt 0.4212 0.4018
vt 0.4212 0.7027
vt 0.2077 0.2012
vt 0.0195 0.8031
vn 1.0000 -0.0000 -0.0000
vn -1.0000 0.0000 0.0000
vn 0.0000 -1.0000 0.0000
vn 0.0000 1.0000 0.0000
vn 0.0000 0.0000 1.0000
s off
f 6/1/1 5/2/1 16/3/1
f 7/4/2 4/5/2 1/6/2
f 16/7/3 1/6/3 4/8/3
f 14/9/2 21/10/2 12/11/2
f 8/12/4 18/13/4 9/14/4
f 15/15/3 23/16/3 14/17/3
f 13/18/1 24/19/1 15/20/1
f 2/21/4 3/22/4 6/23/4
f 8/24/5 1/6/5 5/2/5
f 10/25/2 17/26/2 8/27/2
f 22/28/5 23/16/5 24/19/5
f 19/29/5 18/13/5 17/26/5
f 15/30/5 3/22/5 7/4/5
f 9/31/1 20/32/1 11/33/1
f 12/34/4 22/28/4 13/35/4
f 11/36/3 19/29/3 10/37/3
f 11/38/5 12/39/5 13/40/5
f 13/40/5 15/30/5 7/4/5
f 10/41/5 8/24/5 5/2/5
f 10/41/5 3/22/5 12/39/5
f 14/42/5 12/39/5 3/22/5
f 13/40/5 1/6/5 11/38/5
f 9/43/5 11/38/5 1/6/5
f 6/1/1 3/22/1 5/2/1
f 7/4/2 2/44/2 4/5/2
f 16/7/3 5/2/3 1/6/3
f 14/9/2 23/16/2 21/10/2
f 8/12/4 17/26/4 18/13/4
f 15/15/3 24/19/3 23/16/3
f 13/18/1 22/28/1 24/19/1
f 2/21/4 7/4/4 3/22/4
f 8/24/5 9/43/5 1/6/5
f 10/25/2 19/29/2 17/26/2
f 22/28/5 21/10/5 23/16/5
f 19/29/5 20/32/5 18/13/5
f 15/30/5 14/42/5 3/22/5
f 9/31/1 18/13/1 20/32/1
f 12/34/4 21/10/4 22/28/4
f 11/36/3 20/32/3 19/29/3
f 11/38/5 10/41/5 12/39/5
f 10/41/5 5/2/5 3/22/5
f 13/40/5 7/4/5 1/6/5
