# Blender v2.77 (sub 0) OBJ File: 'Wall shelf.blend'
# www.blender.org
v 1.519531 -0.055491 0.284836
v 1.519531 0.055491 0.284836
v -1.519531 -0.055491 0.284836
v -1.519531 0.055491 0.284836
v 1.519531 -0.055491 -0.284836
v 1.519531 0.055491 -0.284836
v -1.519531 -0.055491 -0.284836
v -1.519531 0.055491 -0.284836
vt 0.8636 0.1629
vt 0.1364 0.1364
vt 0.8636 0.1364
vt 0.1364 0.1629
vt 0.0001 0.1364
vt 0.9999 0.1629
vt 0.9999 0.1364
vt 0.1364 0.0001
vt 0.8636 0.2993
vt 0.1364 0.2993
vt 0.0001 0.1629
vt 0.8636 0.0001
vn -0.0000 0.0000 1.0000
vn -1.0000 0.0000 0.0000
vn 1.0000 0.0000 0.0000
vn 0.0000 -1.0000 0.0000
vn 0.0000 1.0000 0.0000
s off
f 2/1/1 3/2/1 1/3/1
f 4/4/2 7/5/2 3/2/2
f 6/6/3 1/3/3 5/7/3
f 7/8/4 1/3/4 3/2/4
f 4/4/5 6/9/5 8/10/5
f 2/1/1 4/4/1 3/2/1
f 4/4/2 8/11/2 7/5/2
f 6/6/3 2/1/3 1/3/3
f 7/8/4 5/12/4 1/3/4
f 4/4/5 2/1/5 6/9/5
